<svg xmlns="http://www.w3.org/2000/svg" xmlns:xlink="http://www.w3.org/1999/xlink" version="1.1" class="marks" width="815" height="285" viewBox="0 0 815 285"><rect width="815" height="285" fill="white"/><g fill="none" stroke-miterlimit="10" transform="translate(8,23)"><g class="mark-group role-frame root" role="graphics-object" aria-roledescription="group mark container"><g transform="translate(0,0)"><path class="background" aria-hidden="true" d="M0,0h800v0h-800Z"/><g><g class="mark-group role-scope concat_0_group" role="graphics-object" aria-roledescription="group mark container"><g transform="translate(0,0)"><path class="background" aria-hidden="true" d="M0.5,0.5h800v100h-800Z" stroke="#ddd"/><g><g class="mark-group role-axis" aria-hidden="true"><g transform="translate(0.5,100.5)"><path class="background" aria-hidden="true" d="M0,0h0v0h0Z" pointer-events="none"/><g><g class="mark-rule role-axis-grid" pointer-events="none"><line transform="translate(0,-100)" x2="0" y2="100" stroke="#ddd" stroke-width="1" opacity="1"/><line transform="translate(44,-100)" x2="0" y2="100" stroke="#ddd" stroke-width="1" opacity="1"/><line transform="translate(89,-100)" x2="0" y2="100" stroke="#ddd" stroke-width="1" opacity="1"/><line transform="translate(133,-100)" x2="0" y2="100" stroke="#ddd" stroke-width="1" opacity="1"/><line transform="translate(178,-100)" x2="0" y2="100" stroke="#ddd" stroke-width="1" opacity="1"/><line transform="translate(222,-100)" x2="0" y2="100" stroke="#ddd" stroke-width="1" opacity="1"/><line transform="translate(267,-100)" x2="0" y2="100" stroke="#ddd" stroke-width="1" opacity="1"/><line transform="translate(311,-100)" x2="0" y2="100" stroke="#ddd" stroke-width="1" opacity="1"/><line transform="translate(356,-100)" x2="0" y2="100" stroke="#ddd" stroke-width="1" opacity="1"/><line transform="translate(400,-100)" x2="0" y2="100" stroke="#ddd" stroke-width="1" opacity="1"/><line transform="translate(444,-100)" x2="0" y2="100" stroke="#ddd" stroke-width="1" opacity="1"/><line transform="translate(489,-100)" x2="0" y2="100" stroke="#ddd" stroke-width="1" opacity="1"/><line transform="translate(533,-100)" x2="0" y2="100" stroke="#ddd" stroke-width="1" opacity="1"/><line transform="translate(578,-100)" x2="0" y2="100" stroke="#ddd" stroke-width="1" opacity="1"/><line transform="translate(622,-100)" x2="0" y2="100" stroke="#ddd" stroke-width="1" opacity="1"/><line transform="translate(667,-100)" x2="0" y2="100" stroke="#ddd" stroke-width="1" opacity="1"/><line transform="translate(711,-100)" x2="0" y2="100" stroke="#ddd" stroke-width="1" opacity="1"/><line transform="translate(756,-100)" x2="0" y2="100" stroke="#ddd" stroke-width="1" opacity="1"/><line transform="translate(800,-100)" x2="0" y2="100" stroke="#ddd" stroke-width="1" opacity="1"/></g></g><path class="foreground" aria-hidden="true" d="" pointer-events="none" display="none"/></g></g><g class="mark-group role-axis" role="graphics-symbol" aria-roledescription="axis" aria-label="X-axis for a linear scale with values from 0 to 180"><g transform="translate(0.5,100.5)"><path class="background" aria-hidden="true" d="M0,0h0v0h0Z" pointer-events="none"/><g><g class="mark-rule role-axis-domain" pointer-events="none"><line transform="translate(0,0)" x2="800" y2="0" stroke="#888" stroke-width="1" opacity="1"/></g></g><path class="foreground" aria-hidden="true" d="" pointer-events="none" display="none"/></g></g><g class="mark-group role-axis" role="graphics-symbol" aria-roledescription="axis" aria-label="Y-axis for a linear scale with values from 0.00 to 0.04"><g transform="translate(0.5,0.5)"><path class="background" aria-hidden="true" d="M0,0h0v0h0Z" pointer-events="none"/><g><g class="mark-rule role-axis-domain" pointer-events="none"><line transform="translate(0,100)" x2="0" y2="-100" stroke="#888" stroke-width="1" opacity="1"/></g></g><path class="foreground" aria-hidden="true" d="" pointer-events="none" display="none"/></g></g><g class="mark-area role-mark concat_0_marks" role="graphics-object" aria-roledescription="area mark container" pointer-events="none"><path aria-label="borrow_duration_days: 1; density: 0.0342496961675" role="graphics-symbol" aria-roledescription="area mark" d="M4.444,14.376L8.333,12.61L12.222,12.076L16.111,12.664L20,14.218L23.889,16.543L27.778,19.438L35.556,26.176L51.111,39.696L58.889,45.433L66.667,50.393L97.778,67.338L128.889,86.432L132.778,88.308L136.667,89.922L140.556,91.256L144.444,92.303L148.333,93.073L152.222,93.587L156.111,93.882L160,94.001L163.889,93.994L167.778,93.911L171.667,93.803L175.556,93.714L179.444,93.68L183.333,93.723L187.222,93.857L191.111,94.08L195,94.383L198.889,94.745L206.667,95.551L210.556,95.943L214.444,96.298L218.333,96.601L222.222,96.843L230,97.137L233.889,97.196L237.778,97.207L241.667,97.179L245.556,97.121L249.444,97.04L253.333,96.941L257.222,96.829L261.111,96.707L268.889,96.45L272.778,96.322L276.667,96.203L280.556,96.101L284.444,96.022L288.333,95.978L292.222,95.975L296.111,96.021L300,96.12L303.889,96.273L307.778,96.476L311.667,96.723L315.556,97.003L323.333,97.605L327.222,97.897L331.111,98.165L335,98.396L338.889,98.582L342.778,98.717L346.667,98.801L350.556,98.837L354.444,98.829L358.333,98.789L362.222,98.726L370,98.58L373.889,98.52L377.778,98.481L381.667,98.47L385.556,98.491L389.444,98.544L393.333,98.627L397.222,98.735L401.111,98.861L408.889,99.141L412.778,99.28L416.667,99.411L420.556,99.528L424.444,99.631L428.333,99.716L432.222,99.784L436.111,99.836L440,99.871L447.778,99.893L451.667,99.878L455.556,99.844L459.444,99.788L463.333,99.704L467.222,99.586L471.111,99.428L475,99.223L478.889,98.962L482.778,98.638L486.667,98.245L490.556,97.78L494.444,97.241L498.333,96.631L502.222,95.957L517.778,92.923L521.667,92.196L525.556,91.539L529.444,90.981L533.333,90.548L541.111,90.138L545,90.18L548.889,90.384L552.778,90.739L556.667,91.223L560.556,91.812L564.444,92.474L580,95.306L583.889,95.95L587.778,96.54L591.667,97.072L595.556,97.542L599.444,97.951L603.333,98.299L607.222,98.588L611.111,98.819L615,98.994L618.889,99.117L622.778,99.19L626.667,99.216L630.556,99.2L634.444,99.148L638.333,99.068L642.222,98.969L650,98.748L653.889,98.647L657.778,98.565L661.667,98.51L665.556,98.485L669.444,98.496L673.333,98.54L677.222,98.617L681.111,98.72L685,98.843L688.889,98.978L696.667,99.257L700.556,99.386L704.444,99.501L708.333,99.6L712.222,99.679L716.111,99.736L720,99.772L723.889,99.787L727.778,99.779L731.667,99.749L735.556,99.697L739.444,99.624L743.333,99.531L747.222,99.42L751.111,99.295L766.667,98.754L770.556,98.645L774.444,98.561L778.333,98.508L782.222,98.49L782.222,100L778.333,100L774.444,100L770.556,100L766.667,100L751.111,100L747.222,100L743.333,100L739.444,100L735.556,100L731.667,100L727.778,100L723.889,100L720,100L716.111,100L712.222,100L708.333,100L704.444,100L700.556,100L696.667,100L688.889,100L685,100L681.111,100L677.222,100L673.333,100L669.444,100L665.556,100L661.667,100L657.778,100L653.889,100L650,100L642.222,100L638.333,100L634.444,100L630.556,100L626.667,100L622.778,100L618.889,100L615,100L611.111,100L607.222,100L603.333,100L599.444,100L595.556,100L591.667,100L587.778,100L583.889,100L580,100L564.444,100L560.556,100L556.667,100L552.778,100L548.889,100L545,100L541.111,100L533.333,100L529.444,100L525.556,100L521.667,100L517.778,100L502.222,100L498.333,100L494.444,100L490.556,100L486.667,100L482.778,100L478.889,100L475,100L471.111,100L467.222,100L463.333,100L459.444,100L455.556,100L451.667,100L447.778,100L440,100L436.111,100L432.222,100L428.333,100L424.444,100L420.556,100L416.667,100L412.778,100L408.889,100L401.111,100L397.222,100L393.333,100L389.444,100L385.556,100L381.667,100L377.778,100L373.889,100L370,100L362.222,100L358.333,100L354.444,100L350.556,100L346.667,100L342.778,100L338.889,100L335,100L331.111,100L327.222,100L323.333,100L315.556,100L311.667,100L307.778,100L303.889,100L300,100L296.111,100L292.222,100L288.333,100L284.444,100L280.556,100L276.667,100L272.778,100L268.889,100L261.111,100L257.222,100L253.333,100L249.444,100L245.556,100L241.667,100L237.778,100L233.889,100L230,100L222.222,100L218.333,100L214.444,100L210.556,100L206.667,100L198.889,100L195,100L191.111,100L187.222,100L183.333,100L179.444,100L175.556,100L171.667,100L167.778,100L163.889,100L160,100L156.111,100L152.222,100L148.333,100L144.444,100L140.556,100L136.667,100L132.778,100L128.889,100L97.778,100L66.667,100L58.889,100L51.111,100L35.556,100L27.778,100L23.889,100L20,100L16.111,100L12.222,100L8.333,100L4.444,100Z" fill="#4c78a8"/></g></g><path class="foreground" aria-hidden="true" d="" display="none"/></g></g><g class="mark-group role-scope concat_1_group" role="graphics-object" aria-roledescription="group mark container"><g transform="translate(0,104)"><path class="background" aria-hidden="true" d="M0.5,0.5h800v120h-800Z" stroke="#ddd"/><g><g class="mark-group role-axis" aria-hidden="true"><g transform="translate(0.5,120.5)"><path class="background" aria-hidden="true" d="M0,0h0v0h0Z" pointer-events="none"/><g><g class="mark-rule role-axis-grid" pointer-events="none"><line transform="translate(0,-120)" x2="0" y2="120" stroke="#ddd" stroke-width="1" opacity="1"/><line transform="translate(44,-120)" x2="0" y2="120" stroke="#ddd" stroke-width="1" opacity="1"/><line transform="translate(89,-120)" x2="0" y2="120" stroke="#ddd" stroke-width="1" opacity="1"/><line transform="translate(133,-120)" x2="0" y2="120" stroke="#ddd" stroke-width="1" opacity="1"/><line transform="translate(178,-120)" x2="0" y2="120" stroke="#ddd" stroke-width="1" opacity="1"/><line transform="translate(222,-120)" x2="0" y2="120" stroke="#ddd" stroke-width="1" opacity="1"/><line transform="translate(267,-120)" x2="0" y2="120" stroke="#ddd" stroke-width="1" opacity="1"/><line transform="translate(311,-120)" x2="0" y2="120" stroke="#ddd" stroke-width="1" opacity="1"/><line transform="translate(356,-120)" x2="0" y2="120" stroke="#ddd" stroke-width="1" opacity="1"/><line transform="translate(400,-120)" x2="0" y2="120" stroke="#ddd" stroke-width="1" opacity="1"/><line transform="translate(444,-120)" x2="0" y2="120" stroke="#ddd" stroke-width="1" opacity="1"/><line transform="translate(489,-120)" x2="0" y2="120" stroke="#ddd" stroke-width="1" opacity="1"/><line transform="translate(533,-120)" x2="0" y2="120" stroke="#ddd" stroke-width="1" opacity="1"/><line transform="translate(578,-120)" x2="0" y2="120" stroke="#ddd" stroke-width="1" opacity="1"/><line transform="translate(622,-120)" x2="0" y2="120" stroke="#ddd" stroke-width="1" opacity="1"/><line transform="translate(667,-120)" x2="0" y2="120" stroke="#ddd" stroke-width="1" opacity="1"/><line transform="translate(711,-120)" x2="0" y2="120" stroke="#ddd" stroke-width="1" opacity="1"/><line transform="translate(756,-120)" x2="0" y2="120" stroke="#ddd" stroke-width="1" opacity="1"/><line transform="translate(800,-120)" x2="0" y2="120" stroke="#ddd" stroke-width="1" opacity="1"/></g></g><path class="foreground" aria-hidden="true" d="" pointer-events="none" display="none"/></g></g><g class="mark-group role-axis" role="graphics-symbol" aria-roledescription="axis" aria-label="X-axis titled 'Borrow duration in days' for a linear scale with values from 0 to 180"><g transform="translate(0.5,120.5)"><path class="background" aria-hidden="true" d="M0,0h0v0h0Z" pointer-events="none"/><g><g class="mark-rule role-axis-tick" pointer-events="none"><line transform="translate(0,0)" x2="0" y2="5" stroke="#888" stroke-width="1" opacity="1"/><line transform="translate(44,0)" x2="0" y2="5" stroke="#888" stroke-width="1" opacity="1"/><line transform="translate(89,0)" x2="0" y2="5" stroke="#888" stroke-width="1" opacity="1"/><line transform="translate(133,0)" x2="0" y2="5" stroke="#888" stroke-width="1" opacity="1"/><line transform="translate(178,0)" x2="0" y2="5" stroke="#888" stroke-width="1" opacity="1"/><line transform="translate(222,0)" x2="0" y2="5" stroke="#888" stroke-width="1" opacity="1"/><line transform="translate(267,0)" x2="0" y2="5" stroke="#888" stroke-width="1" opacity="1"/><line transform="translate(311,0)" x2="0" y2="5" stroke="#888" stroke-width="1" opacity="1"/><line transform="translate(356,0)" x2="0" y2="5" stroke="#888" stroke-width="1" opacity="1"/><line transform="translate(400,0)" x2="0" y2="5" stroke="#888" stroke-width="1" opacity="1"/><line transform="translate(444,0)" x2="0" y2="5" stroke="#888" stroke-width="1" opacity="1"/><line transform="translate(489,0)" x2="0" y2="5" stroke="#888" stroke-width="1" opacity="1"/><line transform="translate(533,0)" x2="0" y2="5" stroke="#888" stroke-width="1" opacity="1"/><line transform="translate(578,0)" x2="0" y2="5" stroke="#888" stroke-width="1" opacity="1"/><line transform="translate(622,0)" x2="0" y2="5" stroke="#888" stroke-width="1" opacity="1"/><line transform="translate(667,0)" x2="0" y2="5" stroke="#888" stroke-width="1" opacity="1"/><line transform="translate(711,0)" x2="0" y2="5" stroke="#888" stroke-width="1" opacity="1"/><line transform="translate(756,0)" x2="0" y2="5" stroke="#888" stroke-width="1" opacity="1"/><line transform="translate(800,0)" x2="0" y2="5" stroke="#888" stroke-width="1" opacity="1"/></g><g class="mark-text role-axis-label" pointer-events="none"><text text-anchor="start" transform="translate(0,15)" font-family="sans-serif" font-size="10px" fill="#000" opacity="1">0</text><text text-anchor="middle" transform="translate(44.44444444444444,15)" font-family="sans-serif" font-size="10px" fill="#000" opacity="1">10</text><text text-anchor="middle" transform="translate(88.88888888888889,15)" font-family="sans-serif" font-size="10px" fill="#000" opacity="1">20</text><text text-anchor="middle" transform="translate(133.33333333333331,15)" font-family="sans-serif" font-size="10px" fill="#000" opacity="1">30</text><text text-anchor="middle" transform="translate(177.77777777777777,15)" font-family="sans-serif" font-size="10px" fill="#000" opacity="1">40</text><text text-anchor="middle" transform="translate(222.22222222222223,15)" font-family="sans-serif" font-size="10px" fill="#000" opacity="1">50</text><text text-anchor="middle" transform="translate(266.66666666666663,15)" font-family="sans-serif" font-size="10px" fill="#000" opacity="1">60</text><text text-anchor="middle" transform="translate(311.11111111111114,15)" font-family="sans-serif" font-size="10px" fill="#000" opacity="1">70</text><text text-anchor="middle" transform="translate(355.55555555555554,15)" font-family="sans-serif" font-size="10px" fill="#000" opacity="1">80</text><text text-anchor="middle" transform="translate(400,15)" font-family="sans-serif" font-size="10px" fill="#000" opacity="1">90</text><text text-anchor="middle" transform="translate(444.44444444444446,15)" font-family="sans-serif" font-size="10px" fill="#000" opacity="1">100</text><text text-anchor="middle" transform="translate(488.8888888888889,15)" font-family="sans-serif" font-size="10px" fill="#000" opacity="1">110</text><text text-anchor="middle" transform="translate(533.3333333333333,15)" font-family="sans-serif" font-size="10px" fill="#000" opacity="1">120</text><text text-anchor="middle" transform="translate(577.7777777777777,15)" font-family="sans-serif" font-size="10px" fill="#000" opacity="1">130</text><text text-anchor="middle" transform="translate(622.2222222222223,15)" font-family="sans-serif" font-size="10px" fill="#000" opacity="1">140</text><text text-anchor="middle" transform="translate(666.6666666666667,15)" font-family="sans-serif" font-size="10px" fill="#000" opacity="1">150</text><text text-anchor="middle" transform="translate(711.1111111111111,15)" font-family="sans-serif" font-size="10px" fill="#000" opacity="1">160</text><text text-anchor="middle" transform="translate(755.5555555555555,15)" font-family="sans-serif" font-size="10px" fill="#000" opacity="1">170</text><text text-anchor="end" transform="translate(800,15)" font-family="sans-serif" font-size="10px" fill="#000" opacity="1">180</text></g><g class="mark-rule role-axis-domain" pointer-events="none"><line transform="translate(0,0)" x2="800" y2="0" stroke="#888" stroke-width="1" opacity="1"/></g><g class="mark-text role-axis-title" pointer-events="none"><text text-anchor="middle" transform="translate(400,30)" font-family="sans-serif" font-size="11px" font-weight="bold" fill="#000" opacity="1">Borrow duration in days</text></g></g><path class="foreground" aria-hidden="true" d="" pointer-events="none" display="none"/></g></g><g class="mark-symbol role-mark concat_1_marks" role="graphics-object" aria-roledescription="symbol mark container"><path aria-label="Borrow duration in days: 15; jitter: −0.000673036495932; item: Sentimental Education by Gustave Flaubert (1869); dates: 1925-10-12 to 1925-10-27; days out: 15" role="graphics-symbol" aria-roledescription="circle" transform="translate(66.66666666666666,14.684432638506255)" d="M3.536,0A3.536,3.536,0,1,1,-3.536,0A3.536,3.536,0,1,1,3.536,0" fill="#4c78a8" stroke="#ff7f0e" stroke-width="2" opacity="0.7"/><path aria-label="Borrow duration in days: 8; jitter: −0.00248097794997; item: Sailing Alone Around the World by Joshua Slocum (1900); dates: 1925-10-14 to 1925-10-22; days out: 8" role="graphics-symbol" aria-roledescription="circle" transform="translate(35.55555555555556,54.13042799929785)" d="M3.536,0A3.536,3.536,0,1,1,-3.536,0A3.536,3.536,0,1,1,3.536,0" fill="#4c78a8" stroke="#ff7f0e" stroke-width="2" opacity="0.7"/><path aria-label="Borrow duration in days: 8; jitter: −0.000844780578899; item: The Sea and the Jungle by H. M. Tomlinson (1912); dates: 1925-10-14 to 1925-10-22; days out: 8" role="graphics-symbol" aria-roledescription="circle" transform="translate(35.55555555555556,18.431576266895206)" d="M3.536,0A3.536,3.536,0,1,1,-3.536,0A3.536,3.536,0,1,1,3.536,0" fill="#4c78a8" stroke="#ff7f0e" stroke-width="2" opacity="0.7"/><path aria-label="Borrow duration in days: 25; jitter: −0.0007934103105; item: A Sportsman's Sketches by Ivan Turgenev (1895); dates: 1925-10-22 to 1925-11-16; days out: 25" role="graphics-symbol" aria-roledescription="circle" transform="translate(111.11111111111111,17.310770410901434)" d="M3.536,0A3.536,3.536,0,1,1,-3.536,0A3.536,3.536,0,1,1,3.536,0" fill="#4c78a8" stroke="#ff7f0e" stroke-width="2" opacity="0.7"/><path aria-label="Borrow duration in days: 5; jitter: −0.00459416639414; item: A Lear of the Steppes and Other Stories by Ivan Turgenev (1898); dates: 1925-10-22 to 1925-10-27; days out: 5" role="graphics-symbol" aria-roledescription="circle" transform="translate(22.22222222222222,100.23635769026207)" d="M3.536,0A3.536,3.536,0,1,1,-3.536,0A3.536,3.536,0,1,1,3.536,0" fill="#4c78a8" stroke="#ff7f0e" stroke-width="2" opacity="0.7"/><path aria-label="Borrow duration in days: 20; jitter: −0.00208693917828; item: The Torrents of Spring by Ivan Turgenev (1872); dates: 1925-10-27 to 1925-11-16; days out: 20" role="graphics-symbol" aria-roledescription="circle" transform="translate(88.88888888888889,45.533218435256295)" d="M3.536,0A3.536,3.536,0,1,1,-3.536,0A3.536,3.536,0,1,1,3.536,0" fill="#4c78a8" stroke="#ff7f0e" stroke-width="2" opacity="0.7"/><path aria-label="Borrow duration in days: 15; jitter: −0.00157378500354; item: The Bread of Deceit by Marie Belloc Lowndes (1925); dates: 1925-11-09 to 1925-11-24; days out: 15" role="graphics-symbol" aria-roledescription="circle" transform="translate(66.66666666666666,34.33712734992343)" d="M3.536,0A3.536,3.536,0,1,1,-3.536,0A3.536,3.536,0,1,1,3.536,0" fill="#4c78a8" stroke="#ff7f0e" stroke-width="2" opacity="0.7"/><path aria-label="Borrow duration in days: 8; jitter: −0.000213414114708; item: The Travel Diary of a Philosopher by Hermann von Keyserling (1919); dates: 1925-11-16 to 1925-11-24; days out: 8" role="graphics-symbol" aria-roledescription="circle" transform="translate(35.55555555555556,4.656307957264589)" d="M3.536,0A3.536,3.536,0,1,1,-3.536,0A3.536,3.536,0,1,1,3.536,0" fill="#4c78a8" stroke="#ff7f0e" stroke-width="2" opacity="0.7"/><path aria-label="Borrow duration in days: 17; jitter: −0.000252424828379; item: A Parody Outline of History by Donald Ogden Stewart (1921); dates: 1925-11-23 to 1925-12-10; days out: 17" role="graphics-symbol" aria-roledescription="circle" transform="translate(75.55555555555556,5.507450800993374)" d="M3.536,0A3.536,3.536,0,1,1,-3.536,0A3.536,3.536,0,1,1,3.536,0" fill="#4c78a8" stroke="#ff7f0e" stroke-width="2" opacity="0.7"/><path aria-label="Borrow duration in days: 7; jitter: −0.000207706886153; item: More Tales of the Uneasy by Violet Hunt (1925); dates: 1925-11-24 to 1925-12-01; days out: 7" role="graphics-symbol" aria-roledescription="circle" transform="translate(31.11111111111111,4.531786606981725)" d="M3.536,0A3.536,3.536,0,1,1,-3.536,0A3.536,3.536,0,1,1,3.536,0" fill="#4c78a8" stroke="#ff7f0e" stroke-width="2" opacity="0.7"/><path aria-label="Borrow duration in days: 3; jitter: −0.00273119797288; item: The Terrible Hobby of Sir Joseph Londe by E. Phillips Oppenheim (1924); dates: 1925-11-28 to 1925-12-01; days out: 3" role="graphics-symbol" aria-roledescription="circle" transform="translate(13.333333333333334,59.589773953811395)" d="M3.536,0A3.536,3.536,0,1,1,-3.536,0A3.536,3.536,0,1,1,3.536,0" fill="#4c78a8" stroke="#ff7f0e" stroke-width="2" opacity="0.7"/><path aria-label="Borrow duration in days: 9; jitter: −0.00121234060284; item: The Charterhouse of Parma by Stendhal (1839); dates: 1925-12-01 to 1925-12-10; days out: 9" role="graphics-symbol" aria-roledescription="circle" transform="translate(40,26.451067698352453)" d="M3.536,0A3.536,3.536,0,1,1,-3.536,0A3.536,3.536,0,1,1,3.536,0" fill="#4c78a8" stroke="#ff7f0e" stroke-width="2" opacity="0.7"/><path aria-label="Borrow duration in days: 124; jitter: −0.00488617103443; item: Children of the Age by Knut Hamsun (1924); dates: 1925-12-10 to 1926-04-13; days out: 124" role="graphics-symbol" aria-roledescription="circle" transform="translate(551.1111111111111,106.60736802403602)" d="M3.536,0A3.536,3.536,0,1,1,-3.536,0A3.536,3.536,0,1,1,3.536,0" fill="#4c78a8" stroke="#ff7f0e" stroke-width="2" opacity="0.7"/><path aria-label="Borrow duration in days: 40; jitter: −0.00058130868168; item: Fathers and Children by Ivan Turgenev (1895); dates: 1925-12-10 to 1926-01-19; days out: 40" role="graphics-symbol" aria-roledescription="circle" transform="translate(177.77777777777777,12.683098509382965)" d="M3.536,0A3.536,3.536,0,1,1,-3.536,0A3.536,3.536,0,1,1,3.536,0" fill="#4c78a8" stroke="#ff7f0e" stroke-width="2" opacity="0.7"/><path aria-label="Borrow duration in days: 54; jitter: −0.00422778637204; item: A House of Gentlefolk: A Novel by Ivan Turgenev (1894); dates: 1925-12-10 to 1926-02-02; days out: 54" role="graphics-symbol" aria-roledescription="circle" transform="translate(240,92.24261175369274)" d="M3.536,0A3.536,3.536,0,1,1,-3.536,0A3.536,3.536,0,1,1,3.536,0" fill="#4c78a8" stroke="#ff7f0e" stroke-width="2" opacity="0.7"/><path aria-label="Borrow duration in days: 40; jitter: −0.00506656316694; item: Buddenbrooks by Thomas Mann (1924); dates: 1925-12-10 to 1926-01-19; days out: 40" role="graphics-symbol" aria-roledescription="circle" transform="translate(177.77777777777777,110.54319636956909)" d="M3.536,0A3.536,3.536,0,1,1,-3.536,0A3.536,3.536,0,1,1,3.536,0" fill="#4c78a8" stroke="#ff7f0e" stroke-width="2" opacity="0.7"/><path aria-label="Borrow duration in days: 5; jitter: −0.00051786629774; item: The Doctor Looks at Literature: Psychological Studies of Life and Letters by Joseph Collins (1923); dates: 1926-01-28 to 1926-02-02; days out: 5" role="graphics-symbol" aria-roledescription="circle" transform="translate(22.22222222222222,11.298901041593052)" d="M3.536,0A3.536,3.536,0,1,1,-3.536,0A3.536,3.536,0,1,1,3.536,0" fill="#4c78a8" stroke="#ff7f0e" stroke-width="2" opacity="0.7"/><path aria-label="Borrow duration in days: 42; jitter: −0.000216562199721; item: The Best Short Stories of 1925: And the Yearbook of the American Short Story (1926); dates: 1926-03-29 to 1926-05-10; days out: 42" role="graphics-symbol" aria-roledescription="circle" transform="translate(186.66666666666666,4.7249934484473455)" d="M3.536,0A3.536,3.536,0,1,1,-3.536,0A3.536,3.536,0,1,1,3.536,0" fill="#4c78a8" stroke="#ff7f0e" stroke-width="2" opacity="0.7"/><path aria-label="Borrow duration in days: 12; jitter: −0.0044354762787; item: The Flurried Years by Violet Hunt (1926); dates: 1926-04-01 to 1926-04-13; days out: 12" role="graphics-symbol" aria-roledescription="circle" transform="translate(53.333333333333336,96.77402789891909)" d="M3.536,0A3.536,3.536,0,1,1,-3.536,0A3.536,3.536,0,1,1,3.536,0" fill="#4c78a8" stroke="#ff7f0e" stroke-width="2" opacity="0.7"/><path aria-label="Borrow duration in days: 13; jitter: −0.00518658368206; item: Along the Road: Notes and Essays of a Tourist by Aldous Huxley (1925); dates: 1926-04-11 to 1926-04-24; days out: 13" role="graphics-symbol" aria-roledescription="circle" transform="translate(57.77777777777777,113.16182579041727)" d="M3.536,0A3.536,3.536,0,1,1,-3.536,0A3.536,3.536,0,1,1,3.536,0" fill="#4c78a8" stroke="#ff7f0e" stroke-width="2" opacity="0.7"/><path aria-label="Borrow duration in days: 11; jitter: −0.00451581734552; item: Strait Is the Gate by André Gide (1924); dates: 1926-04-13 to 1926-04-24; days out: 11" role="graphics-symbol" aria-roledescription="circle" transform="translate(48.888888888888886,98.52692390218456)" d="M3.536,0A3.536,3.536,0,1,1,-3.536,0A3.536,3.536,0,1,1,3.536,0" fill="#4c78a8" stroke="#ff7f0e" stroke-width="2" opacity="0.7"/><path aria-label="Borrow duration in days: 7; jitter: −0.000954951250412; item: Selected Poems of Carl Sandburg by Carl Sandburg (1926); dates: 1926-04-17 to 1926-04-24; days out: 7" role="graphics-symbol" aria-roledescription="circle" transform="translate(31.11111111111111,20.835300008995755)" d="M3.536,0A3.536,3.536,0,1,1,-3.536,0A3.536,3.536,0,1,1,3.536,0" fill="#4c78a8" stroke="#ff7f0e" stroke-width="2" opacity="0.7"/><path aria-label="Borrow duration in days: 150; jitter: −0.00138227424616; item: Far Away and Long Ago by W. H. Hudson (1918); dates: 1926-05-04 to 1926-10-01; days out: 150" role="graphics-symbol" aria-roledescription="circle" transform="translate(666.6666666666667,30.15871082538191)" d="M3.536,0A3.536,3.536,0,1,1,-3.536,0A3.536,3.536,0,1,1,3.536,0" fill="#4c78a8" stroke="#ff7f0e" stroke-width="2" opacity="0.7"/><path aria-label="Borrow duration in days: 6; jitter: −0.00252579975478; item: Steeplejack by James Huneker (1920); dates: 1926-05-04 to 1926-05-10; days out: 6" role="graphics-symbol" aria-roledescription="circle" transform="translate(26.666666666666668,55.10835828611674)" d="M3.536,0A3.536,3.536,0,1,1,-3.536,0A3.536,3.536,0,1,1,3.536,0" fill="#4c78a8" stroke="#ff7f0e" stroke-width="2" opacity="0.7"/><path aria-label="Borrow duration in days: 6; jitter: −0.00322164901319; item: Egoists, a Book of Supermen: Stendhal, Baudelaire, Flaubert, Anatole France, Huysmans, Barrès, Nietzsche, Blake, Ibsen, Stirner, and Ernest Hello by James Huneker (1909); dates: 1926-05-04 to 1926-05-10; days out: 6" role="graphics-symbol" aria-roledescription="circle" transform="translate(26.666666666666668,70.29052392404738)" d="M3.536,0A3.536,3.536,0,1,1,-3.536,0A3.536,3.536,0,1,1,3.536,0" fill="#4c78a8" stroke="#ff7f0e" stroke-width="2" opacity="0.7"/><path aria-label="Borrow duration in days: 131; jitter: −0.00400789946611; item: Thus Spake Zarathustra: A Book for All and None by Friedrich Nietzsche (1883); dates: 1926-05-05 to 1926-09-13; days out: 131" role="graphics-symbol" aria-roledescription="circle" transform="translate(582.2222222222222,87.44507926067224)" d="M3.536,0A3.536,3.536,0,1,1,-3.536,0A3.536,3.536,0,1,1,3.536,0" fill="#4c78a8" stroke="#ff7f0e" stroke-width="2" opacity="0.7"/><path aria-label="Borrow duration in days: 123; jitter: −0.00109817134139; item: The Two Friends and Other Stories by Ivan Turgenev (1921); dates: 1926-05-10 to 1926-09-10; days out: 123" role="graphics-symbol" aria-roledescription="circle" transform="translate(546.6666666666666,23.96010199390964)" d="M3.536,0A3.536,3.536,0,1,1,-3.536,0A3.536,3.536,0,1,1,3.536,0" fill="#4c78a8" stroke="#ff7f0e" stroke-width="2" opacity="0.7"/><path aria-label="Borrow duration in days: 176; jitter: −0.00369526486824; item: Knock Knock Knock and Other Stories by Ivan Turgenev (1922); dates: 1926-05-10 to 1926-11-02; days out: 176" role="graphics-symbol" aria-roledescription="circle" transform="translate(782.2222222222222,80.62396076170148)" d="M3.536,0A3.536,3.536,0,1,1,-3.536,0A3.536,3.536,0,1,1,3.536,0" fill="#4c78a8" stroke="#ff7f0e" stroke-width="2" opacity="0.7"/><path aria-label="Borrow duration in days: 123; jitter: −0.00494318291483; item: On the Eve by Ivan Turgenev (1895); dates: 1926-05-10 to 1926-09-10; days out: 123" role="graphics-symbol" aria-roledescription="circle" transform="translate(546.6666666666666,107.85126359625337)" d="M3.536,0A3.536,3.536,0,1,1,-3.536,0A3.536,3.536,0,1,1,3.536,0" fill="#4c78a8" stroke="#ff7f0e" stroke-width="2" opacity="0.7"/><path aria-label="Borrow duration in days: 122; jitter: −0.000393270020626; item: The Problems of Philosophy by Bertrand Russell (1912); dates: 1926-05-14 to 1926-09-13; days out: 122" role="graphics-symbol" aria-roledescription="circle" transform="translate(542.2222222222223,8.580436813658006)" d="M3.536,0A3.536,3.536,0,1,1,-3.536,0A3.536,3.536,0,1,1,3.536,0" fill="#4c78a8" stroke="#ff7f0e" stroke-width="2" opacity="0.7"/><path aria-label="Borrow duration in days: 15; jitter: −0.000934526437364; item: A Mirror to France by Ford Madox Ford (1926); dates: 1926-08-26 to 1926-09-10; days out: 15" role="graphics-symbol" aria-roledescription="circle" transform="translate(66.66666666666666,20.38966772430161)" d="M3.536,0A3.536,3.536,0,1,1,-3.536,0A3.536,3.536,0,1,1,3.536,0" fill="#4c78a8" stroke="#ff7f0e" stroke-width="2" opacity="0.7"/><path aria-label="Borrow duration in days: 21; jitter: −0.00205570982166; item: Paul Cézanne; dates: 1926-09-10 to 1926-10-01; days out: 21" role="graphics-symbol" aria-roledescription="circle" transform="translate(93.33333333333333,44.851850654447574)" d="M3.536,0A3.536,3.536,0,1,1,-3.536,0A3.536,3.536,0,1,1,3.536,0" fill="#4c78a8" stroke="#ff7f0e" stroke-width="2" opacity="0.7"/><path aria-label="Borrow duration in days: 21; jitter: −0.00445738849534; item: A Sportsman's Sketches by Ivan Turgenev (1895); dates: 1926-09-10 to 1926-10-01; days out: 21" role="graphics-symbol" aria-roledescription="circle" transform="translate(93.33333333333333,97.25211262566619)" d="M3.536,0A3.536,3.536,0,1,1,-3.536,0A3.536,3.536,0,1,1,3.536,0" fill="#4c78a8" stroke="#ff7f0e" stroke-width="2" opacity="0.7"/><path aria-label="Borrow duration in days: 6; jitter: −0.000241752170895; item: The New Republic; dates: 1926-09-25 to 1926-10-01; days out: 6" role="graphics-symbol" aria-roledescription="circle" transform="translate(26.666666666666668,5.2745928195202385)" d="M3.536,0A3.536,3.536,0,1,1,-3.536,0A3.536,3.536,0,1,1,3.536,0" fill="#4c78a8" stroke="#ff7f0e" stroke-width="2" opacity="0.7"/><path aria-label="Borrow duration in days: 10; jitter: −0.00400403286106; item: Mastro-don Gesualdo by Giovanni Verga (1923); dates: 1926-10-01 to 1926-10-11; days out: 10" role="graphics-symbol" aria-roledescription="circle" transform="translate(44.44444444444444,87.3607169685123)" d="M3.536,0A3.536,3.536,0,1,1,-3.536,0A3.536,3.536,0,1,1,3.536,0" fill="#4c78a8" stroke="#ff7f0e" stroke-width="2" opacity="0.7"/><path aria-label="Borrow duration in days: 122; jitter: −0.000374649069524; item: On the Trail of Ancient Man by Roy Chapman Andrews (1926); dates: 1926-10-29 to 1927-02-28; days out: 122" role="graphics-symbol" aria-roledescription="circle" transform="translate(542.2222222222223,8.174161516886858)" d="M3.536,0A3.536,3.536,0,1,1,-3.536,0A3.536,3.536,0,1,1,3.536,0" fill="#4c78a8" stroke="#ff7f0e" stroke-width="2" opacity="0.7"/><path aria-label="Borrow duration in days: 116; jitter: −0.000542304495534; item: Composition as Explanation by Gertrude Stein (1926); dates: 1926-11-04 to 1927-02-28; days out: 116" role="graphics-symbol" aria-roledescription="circle" transform="translate(515.5555555555555,11.832098084381272)" d="M3.536,0A3.536,3.536,0,1,1,-3.536,0A3.536,3.536,0,1,1,3.536,0" fill="#4c78a8" stroke="#ff7f0e" stroke-width="2" opacity="0.7"/><path aria-label="Borrow duration in days: 86; jitter: −0.00078108334678; item: The Spanish Journey by Julius Meier-Graefe (1926); dates: 1926-12-16 to 1927-03-12; days out: 86" role="graphics-symbol" aria-roledescription="circle" transform="translate(382.22222222222223,17.041818475204767)" d="M3.536,0A3.536,3.536,0,1,1,-3.536,0A3.536,3.536,0,1,1,3.536,0" fill="#4c78a8" stroke="#ff7f0e" stroke-width="2" opacity="0.7"/><path aria-label="Borrow duration in days: 11; jitter: −0.00501215175931; item: Go She Must! by David Garnett (1927); dates: 1927-03-01 to 1927-03-12; days out: 11" role="graphics-symbol" aria-roledescription="circle" transform="translate(48.888888888888886,109.35603838493562)" d="M3.536,0A3.536,3.536,0,1,1,-3.536,0A3.536,3.536,0,1,1,3.536,0" fill="#4c78a8" stroke="#ff7f0e" stroke-width="2" opacity="0.7"/><path aria-label="Borrow duration in days: 2; jitter: −0.00389634447376; item: The Story of a Wonder Man: Being the Autobiography of Ring Lardner by Ring Lardner (1927); dates: 1927-06-11 to 1927-06-13; days out: 2" role="graphics-symbol" aria-roledescription="circle" transform="translate(8.88888888888889,85.01115215483514)" d="M3.536,0A3.536,3.536,0,1,1,-3.536,0A3.536,3.536,0,1,1,3.536,0" fill="#4c78a8" stroke="#ff7f0e" stroke-width="2" opacity="0.7"/><path aria-label="Borrow duration in days: 28; jitter: −0.00190990725844; item: The Grandmothers: A Family Portrait by Glenway Wescott (1927); dates: 1927-09-20 to 1927-10-18; days out: 28" role="graphics-symbol" aria-roledescription="circle" transform="translate(124.44444444444444,41.670703820472696)" d="M3.536,0A3.536,3.536,0,1,1,-3.536,0A3.536,3.536,0,1,1,3.536,0" fill="#4c78a8" stroke="#ff7f0e" stroke-width="2" opacity="0.7"/><path aria-label="Borrow duration in days: 1; jitter: −0.00103155021239; item: Time and Western Man by Wyndham Lewis (1927); dates: 1927-10-18 to 1927-10-19; days out: 1" role="graphics-symbol" aria-roledescription="circle" transform="translate(4.444444444444445,22.50655008858548)" d="M3.536,0A3.536,3.536,0,1,1,-3.536,0A3.536,3.536,0,1,1,3.536,0" fill="#4c78a8" stroke="#ff7f0e" stroke-width="2" opacity="0.7"/><path aria-label="Borrow duration in days: 6; jitter: −0.00142651294764; item: The Black Cap: New Stories of Murder and Mystery (1927); dates: 1927-10-19 to 1927-10-25; days out: 6" role="graphics-symbol" aria-roledescription="circle" transform="translate(26.666666666666668,31.123918857697973)" d="M3.536,0A3.536,3.536,0,1,1,-3.536,0A3.536,3.536,0,1,1,3.536,0" fill="#4c78a8" stroke="#ff7f0e" stroke-width="2" opacity="0.7"/><path aria-label="Borrow duration in days: 21; jitter: −0.00167215328878; item: Barnum's Own Story by P. T. Barnum (1927); dates: 1927-10-25 to 1927-11-15; days out: 21" role="graphics-symbol" aria-roledescription="circle" transform="translate(93.33333333333333,36.4833444825588)" d="M3.536,0A3.536,3.536,0,1,1,-3.536,0A3.536,3.536,0,1,1,3.536,0" fill="#4c78a8" stroke="#ff7f0e" stroke-width="2" opacity="0.7"/><path aria-label="Borrow duration in days: 21; jitter: −0.000336012703637; item: Mother India by Katherine Mayo (1927); dates: 1927-10-25 to 1927-11-15; days out: 21" role="graphics-symbol" aria-roledescription="circle" transform="translate(93.33333333333333,7.331186261172804)" d="M3.536,0A3.536,3.536,0,1,1,-3.536,0A3.536,3.536,0,1,1,3.536,0" fill="#4c78a8" stroke="#ff7f0e" stroke-width="2" opacity="0.7"/><path aria-label="Borrow duration in days: 23; jitter: −0.00240261826514; item: The Dial; dates: 1927-11-14 to 1927-12-07; days out: 23" role="graphics-symbol" aria-roledescription="circle" transform="translate(102.22222222222221,52.420762148543275)" d="M3.536,0A3.536,3.536,0,1,1,-3.536,0A3.536,3.536,0,1,1,3.536,0" fill="#4c78a8" stroke="#ff7f0e" stroke-width="2" opacity="0.7"/><path aria-label="Borrow duration in days: 12; jitter: −0.00352789055148; item: The Story of Ivy by Marie Belloc Lowndes (1927); dates: 1927-11-14 to 1927-11-26; days out: 12" role="graphics-symbol" aria-roledescription="circle" transform="translate(53.333333333333336,76.97215748687172)" d="M3.536,0A3.536,3.536,0,1,1,-3.536,0A3.536,3.536,0,1,1,3.536,0" fill="#4c78a8" stroke="#ff7f0e" stroke-width="2" opacity="0.7"/><path aria-label="Borrow duration in days: 14; jitter: −0.00259527620381; item: Shadow River by Walton Hall Smith (1927); dates: 1927-11-23 to 1927-12-07; days out: 14" role="graphics-symbol" aria-roledescription="circle" transform="translate(62.22222222222222,56.62420808310166)" d="M3.536,0A3.536,3.536,0,1,1,-3.536,0A3.536,3.536,0,1,1,3.536,0" fill="#4c78a8" stroke="#ff7f0e" stroke-width="2" opacity="0.7"/><path aria-label="Borrow duration in days: 11; jitter: −0.00294639806796; item: Before the Bombardment by Osbert Sitwell (1926); dates: 1927-11-26 to 1927-12-07; days out: 11" role="graphics-symbol" aria-roledescription="circle" transform="translate(48.888888888888886,64.28504875540787)" d="M3.536,0A3.536,3.536,0,1,1,-3.536,0A3.536,3.536,0,1,1,3.536,0" fill="#4c78a8" stroke="#ff7f0e" stroke-width="2" opacity="0.7"/><path aria-label="Borrow duration in days: 61; jitter: −0.00216611617362; item: Gallions Reach by H. M. Tomlinson (1927); dates: 1927-12-07 to 1928-02-06; days out: 61" role="graphics-symbol" aria-roledescription="circle" transform="translate(271.11111111111114,47.26071651526679)" d="M3.536,0A3.536,3.536,0,1,1,-3.536,0A3.536,3.536,0,1,1,3.536,0" fill="#4c78a8" stroke="#ff7f0e" stroke-width="2" opacity="0.7"/><path aria-label="Borrow duration in days: 68; jitter: −0.00138192677425; item: The Gambler by Fyodor Dostoyevsky (1866); dates: 1927-12-07 to 1928-02-13; days out: 68" role="graphics-symbol" aria-roledescription="circle" transform="translate(302.22222222222223,30.151129620082685)" d="M3.536,0A3.536,3.536,0,1,1,-3.536,0A3.536,3.536,0,1,1,3.536,0" fill="#4c78a8" stroke="#ff7f0e" stroke-width="2" opacity="0.7"/><path aria-label="Borrow duration in days: 68; jitter: −0.002334700204; item: The Insulted and Injured by Fyodor Dostoyevsky (1915); dates: 1927-12-07 to 1928-02-13; days out: 68" role="graphics-symbol" aria-roledescription="circle" transform="translate(302.22222222222223,50.93891354189622)" d="M3.536,0A3.536,3.536,0,1,1,-3.536,0A3.536,3.536,0,1,1,3.536,0" fill="#4c78a8" stroke="#ff7f0e" stroke-width="2" opacity="0.7"/><path aria-label="Borrow duration in days: 20; jitter: −0.000868765576463; item: Lawrence and the Arabs by Robert Graves (1927); dates: 1928-02-04 to 1928-02-24; days out: 20" role="graphics-symbol" aria-roledescription="circle" transform="translate(88.88888888888889,18.95488530464737)" d="M3.536,0A3.536,3.536,0,1,1,-3.536,0A3.536,3.536,0,1,1,3.536,0" fill="#4c78a8" stroke="#ff7f0e" stroke-width="2" opacity="0.7"/><path aria-label="Borrow duration in days: 23; jitter: −0.000849487632823; item: The Torrents of Spring by Ivan Turgenev (1872); dates: 1928-02-09 to 1928-03-03; days out: 23" role="graphics-symbol" aria-roledescription="circle" transform="translate(102.22222222222221,18.53427562522111)" d="M3.536,0A3.536,3.536,0,1,1,-3.536,0A3.536,3.536,0,1,1,3.536,0" fill="#4c78a8" stroke="#ff7f0e" stroke-width="2" opacity="0.7"/><path aria-label="Borrow duration in days: 21; jitter: −0.00136448177231; item: Recollections of the Irish War by Darrell Figgis (1927); dates: 1928-02-11 to 1928-03-03; days out: 21" role="graphics-symbol" aria-roledescription="circle" transform="translate(93.33333333333333,29.770511395753555)" d="M3.536,0A3.536,3.536,0,1,1,-3.536,0A3.536,3.536,0,1,1,3.536,0" fill="#4c78a8" stroke="#ff7f0e" stroke-width="2" opacity="0.7"/><path aria-label="Borrow duration in days: 2; jitter: −0.00305935970192; item: The Riddle of the Irish by J. Chartres Molony (1927); dates: 1928-02-11 to 1928-02-13; days out: 2" role="graphics-symbol" aria-roledescription="circle" transform="translate(8.88888888888889,66.74966622376868)" d="M3.536,0A3.536,3.536,0,1,1,-3.536,0A3.536,3.536,0,1,1,3.536,0" fill="#4c78a8" stroke="#ff7f0e" stroke-width="2" opacity="0.7"/><path aria-label="Borrow duration in days: 15; jitter: −0.000946022201595; item: The World's Illusion by Jakob Wassermann (1920); dates: 1928-02-13 to 1928-02-28; days out: 15" role="graphics-symbol" aria-roledescription="circle" transform="translate(66.66666666666666,20.64048439842872)" d="M3.536,0A3.536,3.536,0,1,1,-3.536,0A3.536,3.536,0,1,1,3.536,0" fill="#4c78a8" stroke="#ff7f0e" stroke-width="2" opacity="0.7"/><path aria-label="Borrow duration in days: 8; jitter: −0.00461397031226; item: The Emperor Jones by Eugene O'Neill (1921); dates: 1928-02-24 to 1928-03-03; days out: 8" role="graphics-symbol" aria-roledescription="circle" transform="translate(35.55555555555556,100.66844317659863)" d="M3.536,0A3.536,3.536,0,1,1,-3.536,0A3.536,3.536,0,1,1,3.536,0" fill="#4c78a8" stroke="#ff7f0e" stroke-width="2" opacity="0.7"/><path aria-label="Borrow duration in days: 8; jitter: −0.00492034288194; item: The Plough and the Stars by Sean O'Casey (1926); dates: 1928-02-24 to 1928-03-03; days out: 8" role="graphics-symbol" aria-roledescription="circle" transform="translate(35.55555555555556,107.35293560602179)" d="M3.536,0A3.536,3.536,0,1,1,-3.536,0A3.536,3.536,0,1,1,3.536,0" fill="#4c78a8" stroke="#ff7f0e" stroke-width="2" opacity="0.7"/><path aria-label="Borrow duration in days: 5; jitter: −0.000629030619324; item: The Wonder Book of the Wild: The Romance of Exploration and Big Game Stalking by Harry Golding (1924); dates: 1928-03-03 to 1928-03-08; days out: 5" role="graphics-symbol" aria-roledescription="circle" transform="translate(22.22222222222222,13.724304421610354)" d="M3.536,0A3.536,3.536,0,1,1,-3.536,0A3.536,3.536,0,1,1,3.536,0" fill="#4c78a8" stroke="#ff7f0e" stroke-width="2" opacity="0.7"/><path aria-label="Borrow duration in days: 23; jitter: −0.00140488054893; item: The Autobiography of Lord Alfred Douglas by Alfred Douglas (1929); dates: 1929-04-23 to 1929-05-16; days out: 23" role="graphics-symbol" aria-roledescription="circle" transform="translate(102.22222222222221,30.651939249428807)" d="M3.536,0A3.536,3.536,0,1,1,-3.536,0A3.536,3.536,0,1,1,3.536,0" fill="#4c78a8" stroke="#ff7f0e" stroke-width="2" opacity="0.7"/><path aria-label="Borrow duration in days: 21; jitter: −0.000666815554676; item: Zola and His Time by Matthew Josephson (1928); dates: 1929-04-23 to 1929-05-14; days out: 21" role="graphics-symbol" aria-roledescription="circle" transform="translate(93.33333333333333,14.548703011118636)" d="M3.536,0A3.536,3.536,0,1,1,-3.536,0A3.536,3.536,0,1,1,3.536,0" fill="#4c78a8" stroke="#ff7f0e" stroke-width="2" opacity="0.7"/><path aria-label="Borrow duration in days: 18; jitter: −0.00105077697511; item: The Guillotine and Its Servants by G. Lenotre (1929); dates: 1929-04-26 to 1929-05-14; days out: 18" role="graphics-symbol" aria-roledescription="circle" transform="translate(80,22.926043093377153)" d="M3.536,0A3.536,3.536,0,1,1,-3.536,0A3.536,3.536,0,1,1,3.536,0" fill="#4c78a8" stroke="#ff7f0e" stroke-width="2" opacity="0.7"/><path aria-label="Borrow duration in days: 42; jitter: −0.00178109937721; item: Dostoevsky Portrayed by His Wife: The Diary and Reminiscences of Mme Dostoevsky by Anna Dostoevskaia (1926); dates: 1929-05-21 to 1929-07-02; days out: 42" role="graphics-symbol" aria-roledescription="circle" transform="translate(186.66666666666666,38.860350048131146)" d="M3.536,0A3.536,3.536,0,1,1,-3.536,0A3.536,3.536,0,1,1,3.536,0" fill="#4c78a8" stroke="#ff7f0e" stroke-width="2" opacity="0.7"/><path aria-label="Borrow duration in days: 2; jitter: −0.00352893316242; item: A Bookman's Daybook by Burton Rascoe (1929); dates: 1929-06-03 to 1929-06-05; days out: 2" role="graphics-symbol" aria-roledescription="circle" transform="translate(8.88888888888889,76.99490536193207)" d="M3.536,0A3.536,3.536,0,1,1,-3.536,0A3.536,3.536,0,1,1,3.536,0" fill="#4c78a8" stroke="#ff7f0e" stroke-width="2" opacity="0.7"/><path aria-label="Borrow duration in days: 16; jitter: −0.00470180477693; item: Three Lives by Gertrude Stein (1909); dates: 1929-06-05 to 1929-06-21; days out: 16" role="graphics-symbol" aria-roledescription="circle" transform="translate(71.11111111111111,102.58483149666637)" d="M3.536,0A3.536,3.536,0,1,1,-3.536,0A3.536,3.536,0,1,1,3.536,0" fill="#4c78a8" stroke="#ff7f0e" stroke-width="2" opacity="0.7"/><path aria-label="Borrow duration in days: 3; jitter: −0.00316120873554; item: Contemporary Russian Literature: 1881 – 1925 by D. S. Mirsky (1926); dates: 1929-06-21 to 1929-06-24; days out: 3" role="graphics-symbol" aria-roledescription="circle" transform="translate(13.333333333333334,68.97182695726306)" d="M3.536,0A3.536,3.536,0,1,1,-3.536,0A3.536,3.536,0,1,1,3.536,0" fill="#4c78a8" stroke="#ff7f0e" stroke-width="2" opacity="0.7"/><path aria-label="Borrow duration in days: 3; jitter: −0.00332163888258; item: Politicians and the War, 1914 – 1916 by Max Aitken Beaverbrook (1928); dates: 1929-06-29 to 1929-07-02; days out: 3" role="graphics-symbol" aria-roledescription="circle" transform="translate(13.333333333333334,72.47212107448266)" d="M3.536,0A3.536,3.536,0,1,1,-3.536,0A3.536,3.536,0,1,1,3.536,0" fill="#4c78a8" stroke="#ff7f0e" stroke-width="2" opacity="0.7"/><path aria-label="Borrow duration in days: 8; jitter: −0.004139646867; item: This Quarter; dates: 1929-09-19 to 1929-09-27; days out: 8" role="graphics-symbol" aria-roledescription="circle" transform="translate(35.55555555555556,90.31956800729485)" d="M3.536,0A3.536,3.536,0,1,1,-3.536,0A3.536,3.536,0,1,1,3.536,0" fill="#4c78a8" stroke="#ff7f0e" stroke-width="2" opacity="0.7"/><path aria-label="Borrow duration in days: 8; jitter: −0.00259713776431; item: Lady Chatterley's Lover by D. H. Lawrence (1928); dates: 1929-09-19 to 1929-09-27; days out: 8" role="graphics-symbol" aria-roledescription="circle" transform="translate(35.55555555555556,56.664823948544466)" d="M3.536,0A3.536,3.536,0,1,1,-3.536,0A3.536,3.536,0,1,1,3.536,0" fill="#4c78a8" stroke="#ff7f0e" stroke-width="2" opacity="0.7"/><path aria-label="Borrow duration in days: 24; jitter: −0.000843185468948; item: Adventures of Sir Walter Raleigh; dates: 1929-09-25 to 1929-10-19; days out: 24" role="graphics-symbol" aria-roledescription="circle" transform="translate(106.66666666666667,18.39677386794811)" d="M3.536,0A3.536,3.536,0,1,1,-3.536,0A3.536,3.536,0,1,1,3.536,0" fill="#4c78a8" stroke="#ff7f0e" stroke-width="2" opacity="0.7"/><path aria-label="Borrow duration in days: 118; jitter: −0.00170489395333; item: The Idiot by Fyodor Dostoyevsky (1874); dates: 1929-09-27 to 1930-01-23; days out: 118" role="graphics-symbol" aria-roledescription="circle" transform="translate(524.4444444444445,37.197686254401425)" d="M3.536,0A3.536,3.536,0,1,1,-3.536,0A3.536,3.536,0,1,1,3.536,0" fill="#4c78a8" stroke="#ff7f0e" stroke-width="2" opacity="0.7"/><path aria-label="Borrow duration in days: 8; jitter: −0.00498205852853; item: Balzac in Slippers by Léon Gozlan (1929); dates: 1929-10-11 to 1929-10-19; days out: 8" role="graphics-symbol" aria-roledescription="circle" transform="translate(35.55555555555556,108.69945880439619)" d="M3.536,0A3.536,3.536,0,1,1,-3.536,0A3.536,3.536,0,1,1,3.536,0" fill="#4c78a8" stroke="#ff7f0e" stroke-width="2" opacity="0.7"/><path aria-label="Borrow duration in days: 16; jitter: −0.00234918281181; item: The Virgin and the Gipsy by D. H. Lawrence (1930); dates: 1931-09-07 to 1931-09-23; days out: 16" role="graphics-symbol" aria-roledescription="circle" transform="translate(71.11111111111111,51.25489771211946)" d="M3.536,0A3.536,3.536,0,1,1,-3.536,0A3.536,3.536,0,1,1,3.536,0" fill="#4c78a8" stroke="#ff7f0e" stroke-width="2" opacity="0.7"/><path aria-label="Borrow duration in days: 16; jitter: −0.0041714111796; item: Pagany: A Native Quarterly; dates: 1931-09-07 to 1931-09-23; days out: 16" role="graphics-symbol" aria-roledescription="circle" transform="translate(71.11111111111111,91.0126075549076)" d="M3.536,0A3.536,3.536,0,1,1,-3.536,0A3.536,3.536,0,1,1,3.536,0" fill="#4c78a8" stroke="#ff7f0e" stroke-width="2" opacity="0.7"/><path aria-label="Borrow duration in days: 11; jitter: −0.00301651807348; item: Discursions on Travel Art and Life by Osbert Sitwell (1925); dates: 1933-11-10 to 1933-11-21; days out: 11" role="graphics-symbol" aria-roledescription="circle" transform="translate(48.888888888888886,65.81493978499978)" d="M3.536,0A3.536,3.536,0,1,1,-3.536,0A3.536,3.536,0,1,1,3.536,0" fill="#4c78a8" stroke="#ff7f0e" stroke-width="2" opacity="0.7"/><path aria-label="Borrow duration in days: 11; jitter: −0.00021347026746; item: Sober Truth: A Collection of Nineteenth-Century Episodes, Fantastic, Grotesque and Mysterious (1930); dates: 1933-11-10 to 1933-11-21; days out: 11" role="graphics-symbol" aria-roledescription="circle" transform="translate(48.888888888888886,4.657533108211096)" d="M3.536,0A3.536,3.536,0,1,1,-3.536,0A3.536,3.536,0,1,1,3.536,0" fill="#4c78a8" stroke="#ff7f0e" stroke-width="2" opacity="0.7"/><path aria-label="Borrow duration in days: 11; jitter: −0.00290085341018; item: The Men of Ness by Eric Linklater (1932); dates: 1933-11-10 to 1933-11-21; days out: 11" role="graphics-symbol" aria-roledescription="circle" transform="translate(48.888888888888886,63.29134713113291)" d="M3.536,0A3.536,3.536,0,1,1,-3.536,0A3.536,3.536,0,1,1,3.536,0" fill="#4c78a8" stroke="#ff7f0e" stroke-width="2" opacity="0.7"/><path aria-label="Borrow duration in days: 3; jitter: −0.00405896233741; item: The Dead Don't Care by Jonathan Latimer (1938); dates: 1938-09-07 to 1938-09-10; days out: 3" role="graphics-symbol" aria-roledescription="circle" transform="translate(13.333333333333334,88.55917827081217)" d="M3.536,0A3.536,3.536,0,1,1,-3.536,0A3.536,3.536,0,1,1,3.536,0" fill="#4c78a8" stroke="#ff7f0e" stroke-width="2" opacity="0.7"/><path aria-label="Borrow duration in days: 26; jitter: −0.00117544133968; item: Homage to Catalonia by George Orwell (1938); dates: 1938-09-30 to 1938-10-26; days out: 26" role="graphics-symbol" aria-roledescription="circle" transform="translate(115.55555555555554,25.645992865642814)" d="M3.536,0A3.536,3.536,0,1,1,-3.536,0A3.536,3.536,0,1,1,3.536,0" fill="#4c78a8" stroke="#ff7f0e" stroke-width="2" opacity="0.7"/></g><g class="mark-path role-mark concat_1_voronoi" role="graphics-symbol" aria-roledescription="path mark container"><path transform="translate(0,0)" d="M74.1172264993052,17.53705018140393L53.34121278173538,17.537050181403934L62.33341343802678,1.5938022693516984L75.86844049837931,14.703924287440458Z" stroke-width="0.35"/><path transform="translate(0,0)" d="M49.57839017361752,48.00429383368769L44.49866133475683,55.39762597392116L31.19673007489321,55.39762597392116L29.845555743911635,43.116138571907356L37.340183039484145,40.22048374292164L49.83413310140107,42.22662356472801L50.08223127688969,42.616584291380946Z" stroke-width="0.35"/><path transform="translate(0,0)" d="M47.76261085097432,16.90767483552418L35.5266772145638,23.688893786593464L29.884771514512472,13.257105804685002L30.14796793649985,12.511602731601702L30.154515821095863,12.499362565718766L30.158048936349363,12.496975584763316L33.13861601840956,11.543942112079897L42.22158939914673,11.543942112079895Z" stroke-width="0.35"/><path transform="translate(0,0)" d="M143.40343106129274,0L143.76788116015956,5.25030161490422L110.184791341714,23.15722344948167L105.92511429168604,5.724592017894432L109.13862322849218,0Z" stroke-width="0.35"/><path transform="translate(0,0)" d="M0,120L0,107.93054723156186L24.454256865610667,89.31550636161506L29.049572672378723,95.49400559194675L28.77357751277202,104.01068939131021L26.630326945600576,108.02619720520899L19.030164162624224,120Z" stroke-width="0.35"/><path transform="translate(0,0)" d="M90.41740320128945,40.66759756850318L92.57567446001333,54.74562851686163L86.08697729715324,67.3068500165622L77.47254094540806,40.541012972634675L79.71559093104248,36.088963158425884L80.48127058824895,35.787906467598056Z" stroke-width="0.35"/><path transform="translate(0,0)" d="M77.47254094540806,40.541012972634675L61.161661783204444,44.8260218552739L50.08223127688969,42.616584291380946L49.83413310140107,42.22662356472801L54.19250720546371,27.488805874176073L72.35530697678314,27.488805874176073L79.71559093104248,36.088963158425884Z" stroke-width="0.35"/><path transform="translate(0,0)" d="M42.222650129517106,0L42.22158939914673,11.543942112079895L33.13861601840956,11.543942112079897L33.46204615177083,0Z" stroke-width="0.35"/><path transform="translate(0,0)" d="M81.06578246533094,13.377795445157593L75.86844049837931,14.703924287440458L62.33341343802678,1.5938022693516984L62.38421096605873,0L85.10297100393137,0L84.03235194458577,10.436397239228443Z" stroke-width="0.35"/><path transform="translate(0,0)" d="M33.46204615177083,0L33.13861601840956,11.543942112079897L30.158048936349363,12.496975584763316L28.06941193833089,0Z" stroke-width="0.35"/><path transform="translate(0,0)" d="M15.216225161673187,43.116138571907356L21.7982940714762,62.69944110508206L20.529164244802534,64.28080045553723L12.901034650175376,64.28080045553723L0,56.27258893269832L0,43.17883830668463L10.153870351779673,40.744944595685325Z" stroke-width="0.35"/><path transform="translate(0,0)" d="M54.19250720546371,27.488805874176073L49.83413310140107,42.22662356472801L37.340183039484145,40.22048374292164L32.966606370721536,27.741088702299578L35.5266772145638,23.688893786593464L47.76261085097432,16.90767483552418L52.27094737798574,18.74648176684462L52.672953280895015,20.515076061365072Z" stroke-width="0.35"/><path transform="translate(0,0)" d="M552.463103330427,120L538.8829189334144,71.47794039475289L548.6252982291691,67.73499309119995L580.8169210557786,120Z" stroke-width="0.35"/><path transform="translate(0,0)" d="M174.42960458223735,0L193.9402963570164,21.792671748289248L155.3136184884929,34.90895506825417L146.61098370077968,18.89726603667332L143.76788116015956,5.25030161490422L143.40343106129274,0Z" stroke-width="0.35"/><path transform="translate(0,0)" d="M282.05792948376757,88.08166769743484L303.2456196331263,120L214.36154353725078,120L201.75081993916436,77.12337815577581L228.1212591669388,50.77710917903858Z" stroke-width="0.35"/><path transform="translate(0,0)" d="M201.75081993916436,77.12337815577581L214.36154353725078,120L133.02113634120187,120L138.37767040542764,85.96744464808702L156.96948204543855,71.5703573528885Z" stroke-width="0.35"/><path transform="translate(0,0)" d="M30.14796793649985,12.511602731601702L10.56503662858538,12.511602731601702L2.6773436793312992,0L13.212012969146915,0L30.154515821095863,12.499362565718766Z" stroke-width="0.35"/><path transform="translate(0,0)" d="M241.98181511391314,0L231.00457372793687,21.792671748289248L193.9402963570164,21.792671748289248L174.42960458223735,0Z" stroke-width="0.35"/><path transform="translate(0,0)" d="M60.97395140173218,103.49843353777098L56.08874628199378,104.82332312318971L53.59229364918416,103.94148114356008L48.90363447839076,92.05344833117067L54.38961804312248,86.8730926928954L59.94710843487993,86.87309269289541L63.163804530247376,96.79871952578699Z" stroke-width="0.35"/><path transform="translate(0,0)" d="M49.590835639075486,120L56.08874628199378,104.82332312318971L60.97395140173218,103.49843353777098L74.06422447490324,120Z" stroke-width="0.35"/><path transform="translate(0,0)" d="M48.90363447839076,92.05344833117067L53.59229364918416,103.94148114356008L42.91989669423326,103.94148114356008L41.56311431568914,95.49400559194675L41.98612542053718,94.80679912291176Z" stroke-width="0.35"/><path transform="translate(0,0)" d="M29.884771514512472,13.257105804685002L35.5266772145638,23.688893786593464L32.966606370721536,27.741088702299578L22.06507795141884,23.031881554905386Z" stroke-width="0.35"/><path transform="translate(0,0)" d="M748.6348660272803,0L696.2286449395638,120L665.9607006193924,120L606.4009041972636,32.204350572996866L608.0644222962103,0Z" stroke-width="0.35"/><path transform="translate(0,0)" d="M31.19673007489321,55.39762597392116L29.918164815825403,62.69944110508206L21.7982940714762,62.69944110508206L15.216225161673187,43.116138571907356L29.845555743911635,43.116138571907356Z" stroke-width="0.35"/><path transform="translate(0,0)" d="M36.38048231110264,77.966499257383L24.951491200206583,83.03868501295912L21.494556659944593,80.51564967264741L19.89211754206159,70.72197401587286L20.529164244802534,64.28080045553723L21.7982940714762,62.69944110508206L29.918164815825403,62.69944110508206L37.72538134868897,67.79257249773619L39.18597262459548,75.04471722357314Z" stroke-width="0.35"/><path transform="translate(0,0)" d="M554.004531903053,61.549594223130974L606.4009041972636,32.204350572996866L665.9607006193924,120L580.8169210557786,120L548.6252982291691,67.73499309119995Z" stroke-width="0.35"/><path transform="translate(0,0)" d="M530.1326318111452,20.40612381950099L571.7574733422941,8.377299165272433L601.5122711880656,0L608.0644222962103,0L606.4009041972636,32.204350572996866L554.004531903053,61.549594223130974L529.8806992223348,21.05238868068179Z" stroke-width="0.35"/><path transform="translate(0,0)" d="M696.2286449395638,120L748.6348660272803,0L800,0L800,120Z" stroke-width="0.35"/><path transform="translate(0,0)" d="M432.66229643087524,120L442.7623122243902,101.7101460775284L538.8829189334144,71.47794039475289L552.463103330427,120Z" stroke-width="0.35"/><path transform="translate(0,0)" d="M530.1326318111452,20.40612381950099L528.6658694388774,8.377299165272431L571.7574733422941,8.377299165272433Z" stroke-width="0.35"/><path transform="translate(0,0)" d="M73.55072213752496,20.515076061365164L52.672953280895015,20.515076061365072L52.27094737798574,18.74648176684462L53.34121278173538,17.537050181403934L74.1172264993052,17.53705018140393Z" stroke-width="0.35"/><path transform="translate(0,0)" d="M103.8234081142608,41.53635069898604L92.57567446001333,54.74562851686163L90.41740320128945,40.66759756850318L102.43558364712077,40.66759756850318Z" stroke-width="0.35"/><path transform="translate(0,0)" d="M138.37767040542764,85.96744464808702L133.02113634120187,120L87.04123365712934,120L81.47356787740017,96.79871952578698L88.17469964967358,72.93239716606351L129.85374317532091,81.19626570787102Z" stroke-width="0.35"/><path transform="translate(0,0)" d="M28.06941193833089,0L30.158048936349363,12.496975584763316L30.154515821095863,12.499362565718766L13.212012969146915,0Z" stroke-width="0.35"/><path transform="translate(0,0)" d="M48.90363447839076,92.05344833117067L41.98612542053718,94.80679912291176L36.38048231110264,77.966499257383L39.18597262459548,75.04471722357314L41.00391382348798,75.41972057540985L54.38961804312248,86.8730926928954Z" stroke-width="0.35"/><path transform="translate(0,0)" d="M601.5122711880656,0L571.7574733422941,8.377299165272433L528.6658694388774,8.377299165272431L527.5167333531215,0Z" stroke-width="0.35"/><path transform="translate(0,0)" d="M450.2378710077,48.96170606183648L448.32479501940105,0L527.5167333531215,0L528.6658694388774,8.377299165272431L530.1326318111452,20.40612381950099L529.8806992223348,21.05238868068179Z" stroke-width="0.35"/><path transform="translate(0,0)" d="M378.665681472966,120L344.999519510577,40.545021580989456L338.35555321956474,0L448.32479501940105,0L450.2378710077,48.96170606183648L442.7623122243902,101.7101460775284L432.66229643087524,120Z" stroke-width="0.35"/><path transform="translate(0,0)" d="M56.08874628199378,104.82332312318971L49.590835639075486,120L41.68191050532566,120L42.27154208656059,108.02619720520899L42.874802701118405,104.01068939131021L42.91989669423326,103.94148114356008L53.59229364918416,103.94148114356008Z" stroke-width="0.35"/><path transform="translate(0,0)" d="M0,81.0030287583836L15.727024619072731,81.0030287583836L0,100.7035283914397Z" stroke-width="0.35"/><path transform="translate(0,0)" d="M156.96948204543855,71.5703573528885L138.37767040542764,85.96744464808702L129.85374317532091,81.19626570787102L110.66815519188835,41.53635069898604L112.51598186131392,37.80972466832988L146.61098370077968,18.89726603667332L155.3136184884929,34.90895506825417Z" stroke-width="0.35"/><path transform="translate(0,0)" d="M2.6773436793312992,0L10.56503662858538,12.511602731601702L16.46829537747432,24.461487326280416L10.153870351779673,40.744944595685325L0,43.17883830668463L0,0Z" stroke-width="0.35"/><path transform="translate(0,0)" d="M37.340183039484145,40.22048374292164L29.845555743911635,43.116138571907356L15.216225161673187,43.116138571907356L10.153870351779673,40.744944595685325L16.46829537747432,24.461487326280416L22.06507795141884,23.031881554905386L32.966606370721536,27.741088702299578Z" stroke-width="0.35"/><path transform="translate(0,0)" d="M97.48865485910942,33.126927939156175L102.43558364712077,40.66759756850318L90.41740320128945,40.66759756850318L80.48127058824895,35.787906467598056L83.18694718076601,33.12692793915618Z" stroke-width="0.35"/><path transform="translate(0,0)" d="M100.28938112442928,10.939944636145722L85.34929570866134,10.93994463614572L84.03235194458577,10.436397239228443L85.10297100393137,0L109.13862322849218,0L105.92511429168604,5.724592017894432L104.11764597949787,7.902477038757359Z" stroke-width="0.35"/><path transform="translate(0,0)" d="M110.66815519188835,41.53635069898604L129.85374317532091,81.19626570787102L88.17469964967358,72.93239716606351L85.94356712942164,71.13375263351352L86.08697729715324,67.3068500165622L92.57567446001333,54.74562851686163L103.8234081142608,41.53635069898604Z" stroke-width="0.35"/><path transform="translate(0,0)" d="M60.10026200964102,67.81274714592439L71.17843115820028,72.65218392158373L59.94710843487993,86.87309269289541L54.38961804312248,86.8730926928954L41.00391382348798,75.41972057540985Z" stroke-width="0.35"/><path transform="translate(0,0)" d="M77.05277859997302,71.13375263351354L71.17843115820028,72.65218392158373L60.10026200964102,67.81274714592439L58.19588297668638,65.04999427020383L57.47090143007101,63.78819794327039L49.57839017361752,48.00429383368769L50.08223127688969,42.616584291380946L61.161661783204444,44.8260218552739Z" stroke-width="0.35"/><path transform="translate(0,0)" d="M57.47090143007101,63.78819794327039L58.19588297668638,65.04999427020383L39.60749948412358,65.04999427020383L40.32863735950163,63.7881979432704Z" stroke-width="0.35"/><path transform="translate(0,0)" d="M265.38030528537297,0L287.6780807466712,40.545021580989456L282.05792948376757,88.08166769743484L228.1212591669388,50.77710917903858L231.00457372793687,21.792671748289248L241.98181511391314,0Z" stroke-width="0.35"/><path transform="translate(0,0)" d="M338.35555321956474,0L344.999519510577,40.545021580989456L287.6780807466712,40.545021580989456L265.38030528537297,0Z" stroke-width="0.35"/><path transform="translate(0,0)" d="M344.999519510577,40.545021580989456L378.665681472966,120L303.2456196331263,120L282.05792948376757,88.08166769743484L287.6780807466712,40.545021580989456Z" stroke-width="0.35"/><path transform="translate(0,0)" d="M95.67363900173031,22.48782753224938L86.77025791690355,26.14647681116347L81.06578246533094,13.377795445157593L84.03235194458577,10.436397239228443L85.34929570866134,10.93994463614572L95.63669418359639,21.316676226861304Z" stroke-width="0.35"/><path transform="translate(0,0)" d="M104.63401895670223,24.59310743732496L98.33487390657456,24.59310743732496L95.67363900173031,22.48782753224938L95.63669418359639,21.316676226861304L100.28938112442928,10.939944636145722L104.11764597949787,7.902477038757359Z" stroke-width="0.35"/><path transform="translate(0,0)" d="M97.48865485910942,33.126927939156175L83.18694718076601,33.12692793915618L86.77025791690355,26.14647681116347L95.67363900173031,22.48782753224938L98.33487390657456,24.59310743732496Z" stroke-width="0.35"/><path transform="translate(0,0)" d="M0,56.27258893269832L12.901034650175376,64.28080045553723L9.680536983410374,70.72197401587286L8.199450361610731,71.87228579285038L0,71.87228579285038Z" stroke-width="0.35"/><path transform="translate(0,0)" d="M72.35530697678314,27.488805874176073L54.19250720546371,27.488805874176073L52.672953280895015,20.515076061365072L73.55072213752496,20.515076061365164Z" stroke-width="0.35"/><path transform="translate(0,0)" d="M42.91989669423326,103.94148114356008L42.874802701118405,104.01068939131021L28.77357751277202,104.01068939131021L29.049572672378723,95.49400559194675L41.56311431568914,95.49400559194675Z" stroke-width="0.35"/><path transform="translate(0,0)" d="M28.77357751277202,104.01068939131021L42.874802701118405,104.01068939131021L42.27154208656059,108.02619720520899L26.630326945600576,108.02619720520899Z" stroke-width="0.35"/><path transform="translate(0,0)" d="M29.884771514512472,13.257105804685002L22.06507795141884,23.031881554905386L16.46829537747432,24.461487326280416L10.56503662858538,12.511602731601702L30.14796793649985,12.511602731601702Z" stroke-width="0.35"/><path transform="translate(0,0)" d="M112.51598186131392,37.80972466832988L110.66815519188835,41.53635069898604L103.8234081142608,41.53635069898604L102.43558364712077,40.66759756850318L97.48865485910942,33.126927939156175L98.33487390657456,24.59310743732496L104.63401895670223,24.59310743732496L108.01408135986804,25.81891705327082Z" stroke-width="0.35"/><path transform="translate(0,0)" d="M100.28938112442928,10.939944636145722L95.63669418359639,21.316676226861304L85.34929570866134,10.93994463614572Z" stroke-width="0.35"/><path transform="translate(0,0)" d="M80.48127058824895,35.787906467598056L79.71559093104248,36.088963158425884L72.35530697678314,27.488805874176073L73.55072213752496,20.515076061365164L74.1172264993052,17.53705018140393L75.86844049837931,14.703924287440458L81.06578246533094,13.377795445157593L86.77025791690355,26.14647681116347L83.18694718076601,33.12692793915618Z" stroke-width="0.35"/><path transform="translate(0,0)" d="M231.00457372793687,21.792671748289248L228.1212591669388,50.77710917903858L201.75081993916436,77.12337815577581L156.96948204543855,71.5703573528885L155.3136184884929,34.90895506825417L193.9402963570164,21.792671748289248Z" stroke-width="0.35"/><path transform="translate(0,0)" d="M16.99516618951784,80.51564967264741L15.727024619072731,81.0030287583836L0,81.0030287583836L0,71.87228579285038L8.199450361610731,71.87228579285038Z" stroke-width="0.35"/><path transform="translate(0,0)" d="M74.06422447490324,120L60.97395140173218,103.49843353777098L63.163804530247376,96.79871952578699L81.47356787740017,96.79871952578698L87.04123365712934,120Z" stroke-width="0.35"/><path transform="translate(0,0)" d="M20.529164244802534,64.28080045553723L19.89211754206159,70.72197401587286L9.680536983410374,70.72197401587286L12.901034650175376,64.28080045553723Z" stroke-width="0.35"/><path transform="translate(0,0)" d="M19.89211754206159,70.72197401587286L21.494556659944593,80.51564967264741L16.99516618951784,80.51564967264741L8.199450361610731,71.87228579285038L9.680536983410374,70.72197401587286Z" stroke-width="0.35"/><path transform="translate(0,0)" d="M36.38048231110264,77.966499257383L41.98612542053718,94.80679912291176L41.56311431568914,95.49400559194675L29.049572672378723,95.49400559194675L24.454256865610667,89.31550636161506L24.951491200206583,83.03868501295912Z" stroke-width="0.35"/><path transform="translate(0,0)" d="M39.60749948412358,65.04999427020383L37.72538134868897,67.79257249773619L29.918164815825403,62.69944110508206L31.19673007489321,55.39762597392116L44.49866133475683,55.39762597392116L40.32863735950163,63.7881979432704Z" stroke-width="0.35"/><path transform="translate(0,0)" d="M110.184791341714,23.15722344948167L108.01408135986804,25.81891705327082L104.63401895670223,24.59310743732496L104.11764597949787,7.902477038757359L105.92511429168604,5.724592017894432Z" stroke-width="0.35"/><path transform="translate(0,0)" d="M450.2378710077,48.96170606183648L529.8806992223348,21.05238868068179L554.004531903053,61.549594223130974L548.6252982291691,67.73499309119995L538.8829189334144,71.47794039475289L442.7623122243902,101.7101460775284Z" stroke-width="0.35"/><path transform="translate(0,0)" d="M19.030164162624224,120L26.630326945600576,108.02619720520899L42.27154208656059,108.02619720520899L41.68191050532566,120Z" stroke-width="0.35"/><path transform="translate(0,0)" d="M86.08697729715324,67.3068500165622L85.94356712942164,71.13375263351352L77.05277859997302,71.13375263351354L61.161661783204444,44.8260218552739L77.47254094540806,40.541012972634675Z" stroke-width="0.35"/><path transform="translate(0,0)" d="M88.17469964967358,72.93239716606351L81.47356787740017,96.79871952578698L63.163804530247376,96.79871952578699L59.94710843487993,86.87309269289541L71.17843115820028,72.65218392158373L77.05277859997302,71.13375263351354L85.94356712942164,71.13375263351352Z" stroke-width="0.35"/><path transform="translate(0,0)" d="M60.10026200964102,67.81274714592439L41.00391382348798,75.41972057540985L39.18597262459548,75.04471722357314L37.72538134868897,67.79257249773619L39.60749948412358,65.04999427020383L58.19588297668638,65.04999427020383Z" stroke-width="0.35"/><path transform="translate(0,0)" d="M62.38421096605873,0L62.33341343802678,1.5938022693516984L53.34121278173538,17.537050181403934L52.27094737798574,18.74648176684462L47.76261085097432,16.90767483552418L42.22158939914673,11.543942112079895L42.222650129517106,0Z" stroke-width="0.35"/><path transform="translate(0,0)" d="M49.57839017361752,48.00429383368769L57.47090143007101,63.78819794327039L40.32863735950163,63.7881979432704L44.49866133475683,55.39762597392116Z" stroke-width="0.35"/><path transform="translate(0,0)" d="M24.951491200206583,83.03868501295912L24.454256865610667,89.31550636161506L0,107.93054723156186L0,100.7035283914397L15.727024619072731,81.0030287583836L16.99516618951784,80.51564967264741L21.494556659944593,80.51564967264741Z" stroke-width="0.35"/><path transform="translate(0,0)" d="M146.61098370077968,18.89726603667332L112.51598186131392,37.80972466832988L108.01408135986804,25.81891705327082L110.184791341714,23.15722344948167L143.76788116015956,5.25030161490422Z" stroke-width="0.35"/></g></g><path class="foreground" aria-hidden="true" d="" display="none"/></g></g><g class="mark-group role-title"><g transform="translate(-2.091089461488293,-18)"><path class="background" aria-hidden="true" d="M0,0h0v0h0Z" pointer-events="none"/><g><g class="mark-text role-title-text" role="graphics-symbol" aria-roledescription="title" aria-label="Title text 'Distribution of borrow duration for Ernest Hemingway'" pointer-events="none"><text text-anchor="start" transform="translate(0,10)" font-family="sans-serif" font-size="13px" font-weight="bold" fill="#000" opacity="1">Distribution of borrow duration for Ernest Hemingway</text></g></g><path class="foreground" aria-hidden="true" d="" pointer-events="none" display="none"/></g></g></g><path class="foreground" aria-hidden="true" d="" display="none"/></g></g></g></svg>