<svg xmlns="http://www.w3.org/2000/svg" xmlns:xlink="http://www.w3.org/1999/xlink" version="1.1" class="marks" width="1272" height="369" viewBox="0 0 1272 369"><rect width="1272" height="369" fill="white"/><g fill="none" stroke-miterlimit="10" transform="translate(65,57)"><g class="mark-group role-frame root" role="graphics-object" aria-roledescription="group mark container"><g transform="translate(0,0)"><path class="background" aria-hidden="true" d="M0.5,0.5h1200v275h-1200Z" stroke="#ddd"/><g><g class="mark-group role-axis" aria-hidden="true"><g transform="translate(0.5,275.5)"><path class="background" aria-hidden="true" d="M0,0h0v0h0Z" pointer-events="none"/><g><g class="mark-rule role-axis-grid" pointer-events="none"><line transform="translate(6,-275)" x2="0" y2="275" stroke="#ddd" stroke-width="1" opacity="1"/><line transform="translate(58,-275)" x2="0" y2="275" stroke="#ddd" stroke-width="1" opacity="1"/><line transform="translate(111,-275)" x2="0" y2="275" stroke="#ddd" stroke-width="1" opacity="1"/><line transform="translate(164,-275)" x2="0" y2="275" stroke="#ddd" stroke-width="1" opacity="1"/><line transform="translate(216,-275)" x2="0" y2="275" stroke="#ddd" stroke-width="1" opacity="1"/><line transform="translate(269,-275)" x2="0" y2="275" stroke="#ddd" stroke-width="1" opacity="1"/><line transform="translate(321,-275)" x2="0" y2="275" stroke="#ddd" stroke-width="1" opacity="1"/><line transform="translate(374,-275)" x2="0" y2="275" stroke="#ddd" stroke-width="1" opacity="1"/><line transform="translate(427,-275)" x2="0" y2="275" stroke="#ddd" stroke-width="1" opacity="1"/><line transform="translate(479,-275)" x2="0" y2="275" stroke="#ddd" stroke-width="1" opacity="1"/><line transform="translate(532,-275)" x2="0" y2="275" stroke="#ddd" stroke-width="1" opacity="1"/><line transform="translate(584,-275)" x2="0" y2="275" stroke="#ddd" stroke-width="1" opacity="1"/><line transform="translate(637,-275)" x2="0" y2="275" stroke="#ddd" stroke-width="1" opacity="1"/><line transform="translate(690,-275)" x2="0" y2="275" stroke="#ddd" stroke-width="1" opacity="1"/><line transform="translate(742,-275)" x2="0" y2="275" stroke="#ddd" stroke-width="1" opacity="1"/><line transform="translate(795,-275)" x2="0" y2="275" stroke="#ddd" stroke-width="1" opacity="1"/><line transform="translate(847,-275)" x2="0" y2="275" stroke="#ddd" stroke-width="1" opacity="1"/><line transform="translate(900,-275)" x2="0" y2="275" stroke="#ddd" stroke-width="1" opacity="1"/><line transform="translate(953,-275)" x2="0" y2="275" stroke="#ddd" stroke-width="1" opacity="1"/><line transform="translate(1005,-275)" x2="0" y2="275" stroke="#ddd" stroke-width="1" opacity="1"/><line transform="translate(1058,-275)" x2="0" y2="275" stroke="#ddd" stroke-width="1" opacity="1"/><line transform="translate(1111,-275)" x2="0" y2="275" stroke="#ddd" stroke-width="1" opacity="1"/><line transform="translate(1163,-275)" x2="0" y2="275" stroke="#ddd" stroke-width="1" opacity="1"/></g></g><path class="foreground" aria-hidden="true" d="" pointer-events="none" display="none"/></g></g><g class="mark-group role-axis" aria-hidden="true"><g transform="translate(0.5,0.5)"><path class="background" aria-hidden="true" d="M0,0h0v0h0Z" pointer-events="none"/><g><g class="mark-rule role-axis-grid" pointer-events="none"><line transform="translate(0,275)" x2="1200" y2="0" stroke="#ddd" stroke-width="1" opacity="1"/><line transform="translate(0,236)" x2="1200" y2="0" stroke="#ddd" stroke-width="1" opacity="1"/><line transform="translate(0,196)" x2="1200" y2="0" stroke="#ddd" stroke-width="1" opacity="1"/><line transform="translate(0,157)" x2="1200" y2="0" stroke="#ddd" stroke-width="1" opacity="1"/><line transform="translate(0,118)" x2="1200" y2="0" stroke="#ddd" stroke-width="1" opacity="1"/><line transform="translate(0,79)" x2="1200" y2="0" stroke="#ddd" stroke-width="1" opacity="1"/><line transform="translate(0,39)" x2="1200" y2="0" stroke="#ddd" stroke-width="1" opacity="1"/><line transform="translate(0,0)" x2="1200" y2="0" stroke="#ddd" stroke-width="1" opacity="1"/></g></g><path class="foreground" aria-hidden="true" d="" pointer-events="none" display="none"/></g></g><g class="mark-group role-axis" role="graphics-symbol" aria-roledescription="axis" aria-label="X-axis titled 'date' for a time scale with values from Sunday, 23 November 1919, 12:00:00 AM to Sunday, 13 September 1942, 12:00:00 AM"><g transform="translate(0.5,275.5)"><path class="background" aria-hidden="true" d="M0,0h0v0h0Z" pointer-events="none"/><g><g class="mark-rule role-axis-tick" pointer-events="none"><line transform="translate(6,0)" x2="0" y2="5" stroke="#888" stroke-width="1" opacity="1"/><line transform="translate(58,0)" x2="0" y2="5" stroke="#888" stroke-width="1" opacity="1"/><line transform="translate(111,0)" x2="0" y2="5" stroke="#888" stroke-width="1" opacity="1"/><line transform="translate(164,0)" x2="0" y2="5" stroke="#888" stroke-width="1" opacity="1"/><line transform="translate(216,0)" x2="0" y2="5" stroke="#888" stroke-width="1" opacity="1"/><line transform="translate(269,0)" x2="0" y2="5" stroke="#888" stroke-width="1" opacity="1"/><line transform="translate(321,0)" x2="0" y2="5" stroke="#888" stroke-width="1" opacity="1"/><line transform="translate(374,0)" x2="0" y2="5" stroke="#888" stroke-width="1" opacity="1"/><line transform="translate(427,0)" x2="0" y2="5" stroke="#888" stroke-width="1" opacity="1"/><line transform="translate(479,0)" x2="0" y2="5" stroke="#888" stroke-width="1" opacity="1"/><line transform="translate(532,0)" x2="0" y2="5" stroke="#888" stroke-width="1" opacity="1"/><line transform="translate(584,0)" x2="0" y2="5" stroke="#888" stroke-width="1" opacity="1"/><line transform="translate(637,0)" x2="0" y2="5" stroke="#888" stroke-width="1" opacity="1"/><line transform="translate(690,0)" x2="0" y2="5" stroke="#888" stroke-width="1" opacity="1"/><line transform="translate(742,0)" x2="0" y2="5" stroke="#888" stroke-width="1" opacity="1"/><line transform="translate(795,0)" x2="0" y2="5" stroke="#888" stroke-width="1" opacity="1"/><line transform="translate(847,0)" x2="0" y2="5" stroke="#888" stroke-width="1" opacity="1"/><line transform="translate(900,0)" x2="0" y2="5" stroke="#888" stroke-width="1" opacity="1"/><line transform="translate(953,0)" x2="0" y2="5" stroke="#888" stroke-width="1" opacity="1"/><line transform="translate(1005,0)" x2="0" y2="5" stroke="#888" stroke-width="1" opacity="1"/><line transform="translate(1058,0)" x2="0" y2="5" stroke="#888" stroke-width="1" opacity="1"/><line transform="translate(1111,0)" x2="0" y2="5" stroke="#888" stroke-width="1" opacity="1"/><line transform="translate(1163,0)" x2="0" y2="5" stroke="#888" stroke-width="1" opacity="1"/></g><g class="mark-text role-axis-label" pointer-events="none"><text text-anchor="middle" transform="translate(5.618275401537622,15)" font-family="Noto Serif" font-size="10px" fill="#000" opacity="1">1920</text><text text-anchor="middle" transform="translate(58.343629169813774,15)" font-family="Noto Serif" font-size="10px" fill="#000" opacity="1">1921</text><text text-anchor="middle" transform="translate(110.92492459446076,15)" font-family="Noto Serif" font-size="10px" fill="#000" opacity="1">1922</text><text text-anchor="middle" transform="translate(163.50622001910776,15)" font-family="Noto Serif" font-size="10px" fill="#000" opacity="1">1923</text><text text-anchor="middle" transform="translate(216.0875154437547,15)" font-family="Noto Serif" font-size="10px" fill="#000" opacity="1">1924</text><text text-anchor="middle" transform="translate(268.8128692120309,15)" font-family="Noto Serif" font-size="10px" fill="#000" opacity="1">1925</text><text text-anchor="middle" transform="translate(321.39416463667783,15)" font-family="Noto Serif" font-size="10px" fill="#000" opacity="1">1926</text><text text-anchor="middle" transform="translate(373.97546006132484,15)" font-family="Noto Serif" font-size="10px" fill="#000" opacity="1">1927</text><text text-anchor="middle" transform="translate(426.5567554859718,15)" font-family="Noto Serif" font-size="10px" fill="#000" opacity="1">1928</text><text text-anchor="middle" transform="translate(479.282109254248,15)" font-family="Noto Serif" font-size="10px" fill="#000" opacity="1">1929</text><text text-anchor="middle" transform="translate(531.8634046788949,15)" font-family="Noto Serif" font-size="10px" fill="#000" opacity="1">1930</text><text text-anchor="middle" transform="translate(584.4447001035419,15)" font-family="Noto Serif" font-size="10px" fill="#000" opacity="1">1931</text><text text-anchor="middle" transform="translate(637.0259955281889,15)" font-family="Noto Serif" font-size="10px" fill="#000" opacity="1">1932</text><text text-anchor="middle" transform="translate(689.7513492964652,15)" font-family="Noto Serif" font-size="10px" fill="#000" opacity="1">1933</text><text text-anchor="middle" transform="translate(742.332644721112,15)" font-family="Noto Serif" font-size="10px" fill="#000" opacity="1">1934</text><text text-anchor="middle" transform="translate(794.913940145759,15)" font-family="Noto Serif" font-size="10px" fill="#000" opacity="1">1935</text><text text-anchor="middle" transform="translate(847.495235570406,15)" font-family="Noto Serif" font-size="10px" fill="#000" opacity="1">1936</text><text text-anchor="middle" transform="translate(900.2205893386822,15)" font-family="Noto Serif" font-size="10px" fill="#000" opacity="1">1937</text><text text-anchor="middle" transform="translate(952.8018847633292,15)" font-family="Noto Serif" font-size="10px" fill="#000" opacity="1">1938</text><text text-anchor="middle" transform="translate(1005.3831801879761,15)" font-family="Noto Serif" font-size="10px" fill="#000" opacity="1">1939</text><text text-anchor="middle" transform="translate(1057.9644756126231,15)" font-family="Noto Serif" font-size="10px" fill="#000" opacity="1">1940</text><text text-anchor="middle" transform="translate(1110.6898293808993,15)" font-family="Noto Serif" font-size="10px" fill="#000" opacity="1">1941</text><text text-anchor="middle" transform="translate(1163.2711248055464,15)" font-family="Noto Serif" font-size="10px" fill="#000" opacity="1">1942</text></g><g class="mark-rule role-axis-domain" pointer-events="none"><line transform="translate(0,0)" x2="1200" y2="0" stroke="#888" stroke-width="1" opacity="1"/></g><g class="mark-text role-axis-title" pointer-events="none"><text text-anchor="middle" transform="translate(600,30)" font-family="Noto Serif" font-size="11px" font-weight="bold" fill="#000" opacity="1">date</text></g></g><path class="foreground" aria-hidden="true" d="" pointer-events="none" display="none"/></g></g><g class="mark-group role-axis" role="graphics-symbol" aria-roledescription="axis" aria-label="Y-axis titled 'total events per week' for a linear scale with values from 0 to 35"><g transform="translate(0.5,0.5)"><path class="background" aria-hidden="true" d="M0,0h0v0h0Z" pointer-events="none"/><g><g class="mark-rule role-axis-tick" pointer-events="none"><line transform="translate(0,275)" x2="-5" y2="0" stroke="#888" stroke-width="1" opacity="1"/><line transform="translate(0,236)" x2="-5" y2="0" stroke="#888" stroke-width="1" opacity="1"/><line transform="translate(0,196)" x2="-5" y2="0" stroke="#888" stroke-width="1" opacity="1"/><line transform="translate(0,157)" x2="-5" y2="0" stroke="#888" stroke-width="1" opacity="1"/><line transform="translate(0,118)" x2="-5" y2="0" stroke="#888" stroke-width="1" opacity="1"/><line transform="translate(0,79)" x2="-5" y2="0" stroke="#888" stroke-width="1" opacity="1"/><line transform="translate(0,39)" x2="-5" y2="0" stroke="#888" stroke-width="1" opacity="1"/><line transform="translate(0,0)" x2="-5" y2="0" stroke="#888" stroke-width="1" opacity="1"/></g><g class="mark-text role-axis-label" pointer-events="none"><text text-anchor="end" transform="translate(-7,278)" font-family="Noto Serif" font-size="10px" fill="#000" opacity="1">0</text><text text-anchor="end" transform="translate(-7,238.71428571428572)" font-family="Noto Serif" font-size="10px" fill="#000" opacity="1">5</text><text text-anchor="end" transform="translate(-7,199.42857142857144)" font-family="Noto Serif" font-size="10px" fill="#000" opacity="1">10</text><text text-anchor="end" transform="translate(-7,160.14285714285714)" font-family="Noto Serif" font-size="10px" fill="#000" opacity="1">15</text><text text-anchor="end" transform="translate(-7,120.85714285714286)" font-family="Noto Serif" font-size="10px" fill="#000" opacity="1">20</text><text text-anchor="end" transform="translate(-7,81.57142857142857)" font-family="Noto Serif" font-size="10px" fill="#000" opacity="1">25</text><text text-anchor="end" transform="translate(-7,42.2857142857143)" font-family="Noto Serif" font-size="10px" fill="#000" opacity="1">30</text><text text-anchor="end" transform="translate(-7,3)" font-family="Noto Serif" font-size="10px" fill="#000" opacity="1">35</text></g><g class="mark-rule role-axis-domain" pointer-events="none"><line transform="translate(0,275)" x2="0" y2="-275" stroke="#888" stroke-width="1" opacity="1"/></g><g class="mark-text role-axis-title" pointer-events="none"><text text-anchor="middle" transform="translate(-10,-12)" font-family="Noto Serif" font-size="11px" font-weight="bold" fill="#000" opacity="1">total events per week</text></g></g><path class="foreground" aria-hidden="true" d="" pointer-events="none" display="none"/></g></g><g class="mark-line role-mark layer_0_marks" role="graphics-object" aria-roledescription="line mark container"><path aria-label="logbook_date: Nov 23, 1919; total: 12" role="graphics-symbol" aria-roledescription="line mark" d="M0,180.714L1.008,180.714L2.017,180.714L3.025,227.857L4.034,243.571L5.042,220L6.05,227.857L7.059,204.286L8.067,243.571L9.076,227.857L10.084,188.571L11.092,227.857L12.101,220L13.109,227.857L14.118,227.857L15.126,220L16.135,235.714L17.143,212.143L18.151,220L19.154,220L20.162,243.571L21.171,235.714L22.179,251.429L23.187,212.143L24.196,204.286L25.204,227.857L26.213,188.571L27.221,259.286L28.229,235.714L29.238,204.286L30.246,212.143L31.255,196.429L32.263,188.571L33.271,196.429L34.28,220L35.288,259.286L36.297,188.571L37.305,275L38.314,275L39.322,275L40.33,275L41.339,243.571L42.347,243.571L43.356,251.429L44.364,267.143L45.372,259.286L46.381,204.286L47.389,172.857L48.398,251.429L49.406,212.143L50.42,235.714L51.429,157.143L52.437,188.571L53.446,220L54.454,227.857L55.462,227.857L56.471,227.857L57.479,180.714L58.488,149.286L59.496,220L60.505,204.286L61.513,235.714L62.521,235.714L63.53,188.571L64.538,212.143L65.547,125.714L66.555,212.143L67.563,204.286L68.572,196.429L69.58,196.429L70.589,180.714L71.597,227.857L72.605,180.714L73.614,180.714L74.622,180.714L75.625,196.429L76.633,196.429L77.641,180.714L78.65,196.429L79.658,188.571L80.667,196.429L81.675,220L82.683,235.714L83.692,180.714L84.7,172.857L85.709,165L86.717,149.286L87.726,275L88.734,204.286L89.742,196.429L90.751,227.857L91.759,259.286L92.768,204.286L93.776,220L94.784,196.429L95.793,180.714L96.801,188.571L97.816,180.714L98.824,180.714L99.832,133.571L100.841,149.286L101.849,165L102.858,157.143L103.866,157.143L104.874,149.286L105.883,212.143L106.891,117.857L107.9,196.429L108.908,125.714L109.917,125.714L110.925,180.714L111.933,149.286L112.942,188.571L113.95,188.571L114.959,180.714L115.967,172.857L116.975,125.714L117.984,165L118.992,141.429L120.001,196.429L121.009,165L122.017,172.857L123.026,188.571L124.034,180.714L125.043,141.429L126.051,180.714L127.059,188.571L128.068,188.571L129.07,133.571L130.079,188.571L131.087,141.429L132.095,196.429L133.104,235.714L134.112,204.286L135.121,165L136.129,220L137.138,141.429L138.146,117.857L139.154,117.857L140.163,204.286L141.171,220L142.18,188.571L143.188,204.286L144.196,188.571L145.205,235.714L146.213,212.143L147.222,141.429L148.23,180.714L149.238,196.429L150.253,196.429L151.261,165L152.27,149.286L153.278,117.857L154.286,172.857L155.295,125.714L156.303,157.143L157.312,102.143L158.32,188.571L159.329,165L160.337,78.571L161.345,133.571L162.354,102.143L163.362,220L164.371,212.143L165.379,165L166.387,110L167.396,157.143L168.404,172.857L169.413,117.857L170.421,180.714L171.429,157.143L172.438,141.429L173.446,180.714L174.455,133.571L175.463,133.571L176.471,188.571L177.48,180.714L178.488,165L179.497,204.286L180.505,165L181.508,196.429L182.516,157.143L183.524,117.857L184.533,141.429L185.541,172.857L186.55,157.143L187.558,180.714L188.566,196.429L189.575,180.714L190.583,149.286L191.592,227.857L192.6,172.857L193.608,227.857L194.617,204.286L195.625,227.857L196.634,220L197.642,212.143L198.65,235.714L199.659,149.286L200.667,204.286L201.676,180.714L202.684,125.714L203.698,157.143L204.707,62.857L205.715,78.571L206.724,117.857L207.732,117.857L208.741,102.143L209.749,133.571L210.757,141.429L211.766,141.429L212.774,141.429L213.783,78.571L214.791,117.857L215.799,125.714L216.808,165L217.816,133.571L218.825,62.857L219.833,110L220.841,188.571L221.85,125.714L222.858,157.143L223.867,125.714L224.875,102.143L225.883,180.714L226.892,102.143L227.9,149.286L228.909,70.714L229.917,70.714L230.926,70.714L231.934,133.571L232.942,149.286L233.945,157.143L234.953,117.857L235.962,110L236.97,110L237.978,110L238.987,157.143L239.995,117.857L241.004,117.857L242.012,94.286L243.02,165L244.029,86.429L245.037,141.429L246.046,157.143L247.054,165L248.062,149.286L249.071,227.857L250.079,165L251.088,133.571L252.096,110L253.105,141.429L254.113,196.429L255.121,62.857L256.136,110L257.144,117.857L258.153,86.429L259.161,157.143L260.169,172.857L261.178,117.857L262.186,86.429L263.195,86.429L264.203,141.429L265.211,141.429L266.22,157.143L267.228,188.571L268.237,196.429L269.245,117.857L270.253,157.143L271.262,180.714L272.27,117.857L273.279,102.143L274.287,117.857L275.295,133.571L276.304,188.571L277.312,110L278.321,117.857L279.329,141.429L280.338,165L281.346,149.286L282.354,47.143L283.363,102.143L284.371,157.143L285.38,133.571L286.382,94.286L287.39,172.857L288.399,117.857L289.407,133.571L290.416,62.857L291.424,94.286L292.432,149.286L293.441,133.571L294.449,165L295.458,102.143L296.466,94.286L297.474,157.143L298.483,157.143L299.491,165L300.5,125.714L301.508,172.857L302.517,149.286L303.525,165L304.533,133.571L305.542,157.143L306.55,157.143L307.559,23.571L308.573,47.143L309.581,110L310.59,86.429L311.598,47.143L312.607,78.571L313.615,15.714L314.623,94.286L315.632,15.714L316.64,102.143L317.649,55L318.657,78.571L319.665,94.286L320.674,117.857L321.682,141.429L322.691,47.143L323.699,62.857L324.708,47.143L325.716,94.286L326.724,125.714L327.733,149.286L328.741,133.571L329.75,62.857L330.758,47.143L331.766,117.857L332.775,117.857L333.783,70.714L334.792,110L335.8,149.286L336.808,102.143L337.817,110L338.819,94.286L339.828,70.714L340.836,125.714L341.844,39.286L342.853,117.857L343.861,78.571L344.87,125.714L345.878,188.571L346.886,78.571L347.895,55L348.903,86.429L349.912,157.143L350.92,133.571L351.929,70.714L352.937,94.286L353.945,125.714L354.954,172.857L355.962,125.714L356.971,141.429L357.979,133.571L358.987,47.143L359.996,110L361.01,78.571L362.019,62.857L363.027,39.286L364.035,94.286L365.044,94.286L366.052,117.857L367.061,110L368.069,47.143L369.077,149.286L370.086,141.429L371.094,196.429L372.103,78.571L373.111,165L374.12,180.714L375.128,204.286L376.136,180.714L377.145,157.143L378.153,149.286L379.162,204.286L380.17,227.857L381.178,172.857L382.187,212.143L383.195,94.286L384.204,149.286L385.212,157.143L386.22,212.143L387.229,227.857L388.237,133.571L389.246,165L390.254,180.714L391.256,102.143L392.265,141.429L393.273,188.571L394.282,110L395.29,172.857L396.299,110L397.307,180.714L398.315,141.429L399.324,172.857L400.332,102.143L401.341,110L402.349,196.429L403.357,196.429L404.366,149.286L405.374,196.429L406.383,141.429L407.391,188.571L408.399,165L409.408,125.714L410.416,133.571L411.425,110L412.433,133.571L413.447,55L414.456,102.143L415.464,94.286L416.473,180.714L417.481,196.429L418.489,172.857L419.498,157.143L420.506,149.286L421.515,188.571L422.523,133.571L423.532,196.429L424.54,188.571L425.548,172.857L426.557,149.286L427.565,275L428.574,275L429.582,275L430.59,275L431.599,275L432.607,275L433.616,275L434.624,275L435.632,267.143L436.641,212.143L437.649,196.429L438.658,149.286L439.666,165L440.674,110L441.683,165L442.691,117.857L443.7,102.143L444.702,125.714L445.711,110L446.719,94.286L447.727,133.571L448.736,172.857L449.744,125.714L450.753,117.857L451.761,188.571L452.769,149.286L453.778,133.571L454.786,141.429L455.795,78.571L456.803,149.286L457.811,133.571L458.82,172.857L459.828,251.429L460.837,180.714L461.845,180.714L462.853,165L463.862,149.286L464.87,157.143L465.879,188.571L466.893,86.429L467.902,94.286L468.91,94.286L469.918,172.857L470.927,31.429L471.935,117.857L472.944,165L473.952,117.857L474.96,157.143L475.969,117.857L476.977,141.429L477.986,149.286L478.994,157.143L480.002,149.286L481.011,94.286L482.019,125.714L483.028,165L484.036,133.571L485.044,188.571L486.053,157.143L487.061,102.143L488.07,149.286L489.078,117.857L490.086,133.571L491.095,125.714L492.103,180.714L493.112,94.286L494.12,102.143L495.129,86.429L496.137,86.429L497.139,110L498.148,110L499.156,133.571L500.165,172.857L501.173,94.286L502.181,117.857L503.19,165L504.198,212.143L505.207,165L506.215,86.429L507.223,70.714L508.232,212.143L509.24,204.286L510.249,125.714L511.257,188.571L512.265,204.286L513.274,220L514.282,125.714L515.291,180.714L516.299,165L517.308,125.714L518.316,149.286L519.33,133.571L520.339,141.429L521.347,141.429L522.356,165L523.364,165L524.372,172.857L525.381,165L526.389,180.714L527.398,149.286L528.406,94.286L529.414,188.571L530.423,149.286L531.431,172.857L532.44,227.857L533.448,275L534.456,275L535.465,275L536.473,275L537.482,275L538.49,275L539.498,275L540.507,275L541.515,275L542.524,275L543.532,275L544.541,275L545.549,275L546.557,275L547.566,275L548.574,275L549.577,275L550.585,275L551.593,275L552.602,275L553.61,275L554.619,220L555.627,196.429L556.635,227.857L557.644,212.143L558.652,204.286L559.661,267.143L560.669,235.714L561.677,188.571L562.686,235.714L563.694,275L564.703,275L565.711,275L566.72,275L567.728,275L568.736,275L569.745,275L570.753,275L571.768,275L572.776,275L573.784,275L574.793,275L575.801,275L576.81,275L577.818,275L578.826,275L579.835,275L580.843,275L581.852,275L582.86,275L583.868,275L584.877,251.429L585.885,196.429L586.894,259.286L587.902,275L588.911,275L589.919,267.143L590.927,212.143L591.936,275L592.944,275L593.953,275L594.961,275L595.969,275L596.978,275L597.986,275L598.995,275L600.003,275L601.011,275L602.014,275L603.022,275L604.031,275L605.039,275L606.047,275L607.056,275L608.064,275L609.073,275L610.081,275L611.089,275L612.098,275L613.106,275L614.115,275L615.123,275L616.132,275L617.14,275L618.148,275L619.157,275L620.165,275L621.174,275L622.182,275L623.19,275L624.205,275L625.213,275L626.222,275L627.23,275L628.238,275L629.247,275L630.255,275L631.264,275L632.272,275L633.28,275L634.289,275L635.297,275L636.306,275L637.314,275L638.323,275L639.331,275L640.339,275L641.348,275L642.356,275L643.365,275L644.373,275L645.381,275L646.39,275L647.398,275L648.407,275L649.415,275L650.423,275L651.432,275L652.44,275L653.449,275L654.451,275L655.459,275L656.468,275L657.476,275L658.485,275L659.493,275L660.502,275L661.51,275L662.518,275L663.527,275L664.535,275L665.544,275L666.552,275L667.56,275L668.569,275L669.577,275L670.586,275L671.594,275L672.602,275L673.611,275L674.619,275L675.628,275L676.642,141.429L677.65,157.143L678.659,180.714L679.667,212.143L680.676,212.143L681.684,180.714L682.692,102.143L683.701,110L684.709,227.857L685.718,275L686.726,275L687.735,275L688.743,275L689.751,275L690.76,133.571L691.768,141.429L692.777,125.714L693.785,102.143L694.793,149.286L695.802,141.429L696.81,212.143L697.819,165L698.827,165L699.835,157.143L700.844,165L701.852,212.143L702.861,196.429L703.869,172.857L704.877,212.143L705.886,157.143L706.894,165L707.897,149.286L708.905,133.571L709.914,133.571L710.922,165L711.93,180.714L712.939,188.571L713.947,110L714.956,196.429L715.964,157.143L716.972,180.714L717.981,157.143L718.989,243.571L719.998,196.429L721.006,227.857L722.014,227.857L723.023,251.429L724.031,204.286L725.04,212.143L726.048,235.714L727.056,180.714L728.065,227.857L729.079,212.143L730.088,188.571L731.096,180.714L732.105,196.429L733.113,204.286L734.121,165L735.13,212.143L736.138,157.143L737.147,172.857L738.155,188.571L739.163,196.429L740.172,125.714L741.18,212.143L742.189,172.857L743.197,251.429L744.205,243.571L745.214,220L746.222,267.143L747.231,259.286L748.239,267.143L749.247,267.143L750.256,243.571L751.264,235.714L752.273,275L753.281,259.286L754.289,251.429L755.298,267.143L756.306,227.857L757.315,259.286L758.323,251.429L759.332,220L760.334,243.571L761.342,243.571L762.351,243.571L763.359,259.286L764.368,227.857L765.376,259.286L766.384,227.857L767.393,243.571L768.401,227.857L769.41,165L770.418,227.857L771.426,275L772.435,275L773.443,220L774.452,251.429L775.46,220L776.468,188.571L777.477,220L778.485,275L779.494,275L780.502,275L781.511,275L782.525,267.143L783.533,259.286L784.542,243.571L785.55,172.857L786.559,259.286L787.567,220L788.575,227.857L789.584,243.571L790.592,259.286L791.601,212.143L792.609,235.714L793.617,259.286L794.626,251.429L795.634,275L796.643,267.143L797.651,243.571L798.659,220L799.668,165L800.676,235.714L801.685,196.429L802.693,204.286L803.701,180.714L804.71,188.571L805.718,165L806.727,165L807.735,172.857L808.744,180.714L809.752,86.429L810.76,220L811.769,212.143L812.771,172.857L813.78,117.857L814.788,220L815.796,172.857L816.805,275L817.813,180.714L818.822,117.857L819.83,188.571L820.838,220L821.847,188.571L822.855,235.714L823.864,212.143L824.872,188.571L825.88,180.714L826.889,259.286L827.897,227.857L828.906,251.429L829.914,220L830.923,204.286L831.931,275L832.939,275L833.948,275L834.962,275L835.971,212.143L836.979,180.714L837.987,149.286L838.996,204.286L840.004,149.286L841.013,172.857L842.021,204.286L843.029,196.429L844.038,204.286L845.046,220L846.055,204.286L847.063,235.714L848.071,196.429L849.08,196.429L850.088,204.286L851.097,204.286L852.105,157.143L853.114,188.571L854.122,220L855.13,165L856.139,165L857.147,212.143L858.156,165L859.164,165L860.172,165L861.181,149.286L862.189,196.429L863.198,157.143L864.206,78.571L865.208,172.857L866.217,188.571L867.225,133.571L868.234,196.429L869.242,188.571L870.25,220L871.259,220L872.267,196.429L873.276,188.571L874.284,227.857L875.292,165L876.301,204.286L877.309,243.571L878.318,212.143L879.326,165L880.335,275L881.343,275L882.351,227.857L883.36,212.143L884.368,227.857L885.377,243.571L886.385,243.571L887.399,227.857L888.408,196.429L889.416,204.286L890.425,196.429L891.433,251.429L892.441,204.286L893.45,125.714L894.458,102.143L895.467,227.857L896.475,227.857L897.483,157.143L898.492,165L899.5,212.143L900.509,204.286L901.517,275L902.526,275L903.534,275L904.542,275L905.551,275L906.559,275L907.568,275L908.576,275L909.584,275L910.593,275L911.601,275L912.61,275L913.618,275L914.626,275L915.635,275L916.643,275L917.646,275L918.654,275L919.662,275L920.671,275L921.679,275L922.688,275L923.696,275L924.705,275L925.713,275L926.721,275L927.73,275L928.738,275L929.747,275L930.755,275L931.763,275L932.772,275L933.78,275L934.789,275L935.797,275L936.805,275L937.814,275L938.822,275L939.837,275L940.845,275L941.853,275L942.862,275L943.87,275L944.879,275L945.887,275L946.895,275L947.904,275L948.912,275L949.921,275L950.929,275L951.938,275L952.946,275L953.954,275L954.963,275L955.971,275L956.98,275L957.988,275L958.996,275L960.005,259.286L961.013,243.571L962.022,227.857L963.03,227.857L964.038,212.143L965.047,259.286L966.055,227.857L967.064,204.286L968.072,227.857L969.08,267.143L970.083,267.143L971.091,259.286L972.1,275L973.108,275L974.117,275L975.125,275L976.133,275L977.142,275L978.15,275L979.159,275L980.167,275L981.175,275L982.184,275L983.192,275L984.201,275L985.209,275L986.217,275L987.226,275L988.234,275L989.243,275L990.251,275L991.259,275L992.274,275L993.282,275L994.291,275L995.299,251.429L996.308,110L997.316,117.857L998.324,149.286L999.333,188.571L1000.341,180.714L1001.35,188.571L1002.358,172.857L1003.366,227.857L1004.375,227.857L1005.383,196.429L1006.392,188.571L1007.4,180.714L1008.408,204.286L1009.417,227.857L1010.425,172.857L1011.434,180.714L1012.442,172.857L1013.45,141.429L1014.459,141.429L1015.467,86.429L1016.476,235.714L1017.484,188.571L1018.492,125.714L1019.501,188.571L1020.509,227.857L1021.518,172.857L1022.526,141.429L1023.529,149.286L1024.537,172.857L1025.545,267.143L1026.554,212.143L1027.562,86.429L1028.571,212.143L1029.579,180.714L1030.587,188.571L1031.596,196.429L1032.604,70.714L1033.613,141.429L1034.621,243.571L1035.629,180.714L1036.638,275L1037.646,275L1038.655,275L1039.663,275L1040.671,267.143L1041.68,275L1042.688,267.143L1043.697,275L1044.711,275L1045.72,227.857L1046.728,259.286L1047.736,212.143L1048.745,243.571L1049.753,196.429L1050.762,243.571L1051.77,220L1052.778,188.571L1053.787,180.714L1054.795,235.714L1055.804,235.714L1056.812,235.714L1057.82,251.429L1058.829,227.857L1059.837,235.714L1060.846,204.286L1061.854,180.714L1062.862,180.714L1063.871,251.429L1064.879,220L1065.888,196.429L1066.896,204.286L1067.905,204.286L1068.913,157.143L1069.921,243.571L1070.93,251.429L1071.938,227.857L1072.947,220L1073.955,235.714L1074.963,220L1075.966,220L1076.974,220L1077.983,220L1078.991,212.143L1079.999,243.571L1081.008,235.714L1082.016,243.571L1083.025,267.143L1084.033,259.286L1085.041,275L1086.05,251.429L1087.058,259.286L1088.067,259.286L1089.075,259.286L1090.083,267.143L1091.092,235.714L1092.1,235.714L1093.109,235.714L1094.117,243.571L1095.126,251.429L1096.134,220L1097.142,235.714L1098.157,212.143L1099.165,180.714L1100.174,251.429L1101.182,180.714L1102.19,235.714L1103.199,227.857L1104.207,227.857L1105.216,172.857L1106.224,172.857L1107.232,220L1108.241,196.429L1109.249,157.143L1110.258,220L1111.266,204.286L1112.274,180.714L1113.283,180.714L1114.291,212.143L1115.3,149.286L1116.308,172.857L1117.317,165L1118.325,149.286L1119.333,165L1120.342,133.571L1121.35,172.857L1122.359,180.714L1123.367,204.286L1124.375,133.571L1125.384,188.571L1126.392,180.714L1127.401,172.857L1128.403,204.286L1129.411,196.429L1130.42,165L1131.428,212.143L1132.437,94.286L1133.445,141.429L1134.453,227.857L1135.462,165L1136.47,227.857L1137.479,220L1138.487,149.286L1139.495,220L1140.504,235.714L1141.512,86.429L1142.521,275L1143.529,275L1144.538,275L1145.546,275L1146.554,180.714L1147.563,235.714L1148.571,165L1149.58,220L1150.594,196.429L1151.602,157.143L1152.611,102.143L1153.619,141.429L1154.628,212.143L1155.636,157.143L1156.644,149.286L1157.653,243.571L1158.661,141.429L1159.67,133.571L1160.678,196.429L1161.686,275L1162.695,204.286L1163.703,251.429L1164.712,235.714L1165.72,196.429L1166.729,220L1167.737,267.143L1168.745,235.714L1169.748,275L1170.756,267.143L1171.765,259.286L1172.773,275L1173.781,267.143L1174.79,251.429L1175.798,227.857L1176.807,275L1177.815,275L1178.823,267.143L1179.832,267.143L1180.84,275L1181.849,251.429L1182.857,275L1183.865,275L1184.874,275L1185.882,267.143L1186.891,275L1187.899,275L1188.908,275L1189.916,275L1190.924,275L1191.933,275L1192.941,275L1193.95,275L1194.958,275L1195.966,275L1196.975,275L1197.983,275L1198.992,275L1200,267.143" stroke="#4c78a8" stroke-width="2"/></g><g class="mark-rect role-mark layer_1_marks" role="graphics-object" aria-roledescription="rect mark container"><path aria-label="start: Jan 01, 1928; end: Feb 29, 1928; gap: 1928-01-01 to 1928-02-29 (59 days)" role="graphics-symbol" aria-roledescription="rect mark" d="M426.5567554859718,0h8.499442274121066v275h-8.499442274121066Z" fill="gray" opacity="0.2"/><path aria-label="start: Jan 03, 1930; end: Jun 01, 1930; gap: 1930-01-03 to 1930-06-01 (149 days)" role="graphics-symbol" aria-roledescription="rect mark" d="M532.1515213661532,0h21.4586907697618v275h-21.4586907697618Z" fill="gray" opacity="0.2"/><path aria-label="start: Aug 01, 1930; end: Dec 31, 1930; gap: 1930-08-01 to 1930-12-31 (152 days)" role="graphics-symbol" aria-roledescription="rect mark" d="M562.3977710972944,0h21.902870662618398v275h-21.902870662618398Z" fill="gray" opacity="0.2"/><path aria-label="start: Feb 17, 1931; end: Sep 25, 1932; gap: 1931-02-17 to 1932-09-25 (586 days)" role="graphics-symbol" aria-roledescription="rect mark" d="M591.215442254113,0h84.41218693570886v275h-84.41218693570886Z" fill="gray" opacity="0.2"/><path aria-label="start: Jan 01, 1937; end: Feb 16, 1938; gap: 1937-01-01 to 1938-02-16 (411 days)" role="graphics-symbol" aria-roledescription="rect mark" d="M900.2205893386822,0h59.20797923158875v275h-59.20797923158875Z" fill="gray" opacity="0.2"/><path aria-label="start: May 06, 1938; end: Oct 20, 1938; gap: 1938-05-06 to 1938-10-20 (167 days)" role="graphics-symbol" aria-roledescription="rect mark" d="M970.8031752859908,0h24.06374581705586v275h-24.06374581705586Z" fill="gray" opacity="0.2"/></g><g class="mark-text role-mark layer_2_marks" role="graphics-object" aria-roledescription="text mark container"><text aria-label="start: Jan 01, 1928; days: 59" role="graphics-symbol" aria-roledescription="text mark" text-anchor="start" transform="translate(426.5567554859718,9)" font-family="Noto Serif" font-size="11px" fill="black">59</text><text aria-label="start: Jan 03, 1930; days: 149" role="graphics-symbol" aria-roledescription="text mark" text-anchor="start" transform="translate(532.1515213661532,9)" font-family="Noto Serif" font-size="11px" fill="black">149</text><text aria-label="start: Aug 01, 1930; days: 152" role="graphics-symbol" aria-roledescription="text mark" text-anchor="start" transform="translate(562.3977710972944,9)" font-family="Noto Serif" font-size="11px" fill="black">152</text><text aria-label="start: Feb 17, 1931; days: 586" role="graphics-symbol" aria-roledescription="text mark" text-anchor="start" transform="translate(591.215442254113,9)" font-family="Noto Serif" font-size="11px" fill="black">586</text><text aria-label="start: Jan 01, 1937; days: 411" role="graphics-symbol" aria-roledescription="text mark" text-anchor="start" transform="translate(900.2205893386822,9)" font-family="Noto Serif" font-size="11px" fill="black">411</text><text aria-label="start: May 06, 1938; days: 167" role="graphics-symbol" aria-roledescription="text mark" text-anchor="start" transform="translate(970.8031752859908,9)" font-family="Noto Serif" font-size="11px" fill="black">167</text></g><g class="mark-group role-title"><g transform="translate(600,-52)"><path class="background" aria-hidden="true" d="M0,0h0v0h0Z" pointer-events="none"/><g><g class="mark-text role-title-text" role="graphics-symbol" aria-roledescription="title" aria-label="Title text 'Weekly activity from logbooks'" pointer-events="none"><text text-anchor="middle" transform="translate(0,10)" font-family="Noto Serif" font-size="13px" font-weight="bold" fill="#000" opacity="1">Weekly activity from logbooks</text></g><g class="mark-text role-title-subtitle" role="graphics-symbol" aria-roledescription="subtitle" aria-label="Subtitle text 'Gaps highlighted in gray and labeled with the total number of days in each gap.'" pointer-events="none"><text text-anchor="middle" transform="translate(0,25)" font-family="Noto Serif" font-size="12px" fill="#000" opacity="1">Gaps highlighted in gray and labeled with the total number of days in each gap.</text></g></g><path class="foreground" aria-hidden="true" d="" pointer-events="none" display="none"/></g></g></g><path class="foreground" aria-hidden="true" d="" display="none"/></g></g></g></svg>