<svg xmlns="http://www.w3.org/2000/svg" xmlns:xlink="http://www.w3.org/1999/xlink" version="1.1" class="marks" width="636" height="447" viewBox="0 0 636 447"><rect width="636" height="447" fill="white"/><g fill="none" stroke-miterlimit="10" transform="translate(113,5)"><g class="mark-group role-frame root" role="graphics-object" aria-roledescription="group mark container"><g transform="translate(0,0)"><path class="background" aria-hidden="true" d="M0.5,0.5h400v420h-400Z" stroke="#ddd"/><g><g class="mark-group role-axis" aria-hidden="true"><g transform="translate(0.5,420.5)"><path class="background" aria-hidden="true" d="M0,0h0v0h0Z" pointer-events="none"/><g><g class="mark-rule role-axis-grid" pointer-events="none"><line transform="translate(0,0)" x2="0" y2="-420" stroke="#ddd" stroke-width="1" opacity="1"/><line transform="translate(31,0)" x2="0" y2="-420" stroke="#ddd" stroke-width="1" opacity="1"/><line transform="translate(62,0)" x2="0" y2="-420" stroke="#ddd" stroke-width="1" opacity="1"/><line transform="translate(92,0)" x2="0" y2="-420" stroke="#ddd" stroke-width="1" opacity="1"/><line transform="translate(123,0)" x2="0" y2="-420" stroke="#ddd" stroke-width="1" opacity="1"/><line transform="translate(154,0)" x2="0" y2="-420" stroke="#ddd" stroke-width="1" opacity="1"/><line transform="translate(185,0)" x2="0" y2="-420" stroke="#ddd" stroke-width="1" opacity="1"/><line transform="translate(215,0)" x2="0" y2="-420" stroke="#ddd" stroke-width="1" opacity="1"/><line transform="translate(246,0)" x2="0" y2="-420" stroke="#ddd" stroke-width="1" opacity="1"/><line transform="translate(277,0)" x2="0" y2="-420" stroke="#ddd" stroke-width="1" opacity="1"/><line transform="translate(308,0)" x2="0" y2="-420" stroke="#ddd" stroke-width="1" opacity="1"/><line transform="translate(338,0)" x2="0" y2="-420" stroke="#ddd" stroke-width="1" opacity="1"/><line transform="translate(369,0)" x2="0" y2="-420" stroke="#ddd" stroke-width="1" opacity="1"/><line transform="translate(400,0)" x2="0" y2="-420" stroke="#ddd" stroke-width="1" opacity="1"/></g></g><path class="foreground" aria-hidden="true" d="" pointer-events="none" display="none"/></g></g><g class="mark-group role-axis" role="graphics-symbol" aria-roledescription="axis" aria-label="X-axis for a linear scale with values from −6 to 7"><g transform="translate(0.5,420.5)"><path class="background" aria-hidden="true" d="M0,0h0v0h0Z" pointer-events="none"/><g><g class="mark-rule role-axis-tick" pointer-events="none"><line transform="translate(0,0)" x2="0" y2="5" stroke="#888" stroke-width="1" opacity="1"/><line transform="translate(31,0)" x2="0" y2="5" stroke="#888" stroke-width="1" opacity="1"/><line transform="translate(62,0)" x2="0" y2="5" stroke="#888" stroke-width="1" opacity="1"/><line transform="translate(92,0)" x2="0" y2="5" stroke="#888" stroke-width="1" opacity="1"/><line transform="translate(123,0)" x2="0" y2="5" stroke="#888" stroke-width="1" opacity="1"/><line transform="translate(154,0)" x2="0" y2="5" stroke="#888" stroke-width="1" opacity="1"/><line transform="translate(185,0)" x2="0" y2="5" stroke="#888" stroke-width="1" opacity="1"/><line transform="translate(215,0)" x2="0" y2="5" stroke="#888" stroke-width="1" opacity="1"/><line transform="translate(246,0)" x2="0" y2="5" stroke="#888" stroke-width="1" opacity="1"/><line transform="translate(277,0)" x2="0" y2="5" stroke="#888" stroke-width="1" opacity="1"/><line transform="translate(308,0)" x2="0" y2="5" stroke="#888" stroke-width="1" opacity="1"/><line transform="translate(338,0)" x2="0" y2="5" stroke="#888" stroke-width="1" opacity="1"/><line transform="translate(369,0)" x2="0" y2="5" stroke="#888" stroke-width="1" opacity="1"/><line transform="translate(400,0)" x2="0" y2="5" stroke="#888" stroke-width="1" opacity="1"/></g><g class="mark-text role-axis-label" pointer-events="none"><text text-anchor="start" transform="translate(0,15)" font-family="sans-serif" font-size="10px" fill="#000" opacity="1">−6</text><text text-anchor="middle" transform="translate(30.76923076923077,15)" font-family="sans-serif" font-size="10px" fill="#000" opacity="1">−5</text><text text-anchor="middle" transform="translate(61.53846153846154,15)" font-family="sans-serif" font-size="10px" fill="#000" opacity="1">−4</text><text text-anchor="middle" transform="translate(92.3076923076923,15)" font-family="sans-serif" font-size="10px" fill="#000" opacity="1">−3</text><text text-anchor="middle" transform="translate(123.07692307692308,15)" font-family="sans-serif" font-size="10px" fill="#000" opacity="1">−2</text><text text-anchor="middle" transform="translate(153.84615384615387,15)" font-family="sans-serif" font-size="10px" fill="#000" opacity="1">−1</text><text text-anchor="middle" transform="translate(184.6153846153846,15)" font-family="sans-serif" font-size="10px" fill="#000" opacity="1">0</text><text text-anchor="middle" transform="translate(215.3846153846154,15)" font-family="sans-serif" font-size="10px" fill="#000" opacity="1">1</text><text text-anchor="middle" transform="translate(246.15384615384616,15)" font-family="sans-serif" font-size="10px" fill="#000" opacity="1">2</text><text text-anchor="middle" transform="translate(276.9230769230769,15)" font-family="sans-serif" font-size="10px" fill="#000" opacity="1">3</text><text text-anchor="middle" transform="translate(307.69230769230774,15)" font-family="sans-serif" font-size="10px" fill="#000" opacity="1">4</text><text text-anchor="middle" transform="translate(338.46153846153845,15)" font-family="sans-serif" font-size="10px" fill="#000" opacity="1">5</text><text text-anchor="middle" transform="translate(369.2307692307692,15)" font-family="sans-serif" font-size="10px" fill="#000" opacity="1">6</text><text text-anchor="end" transform="translate(400,15)" font-family="sans-serif" font-size="10px" fill="#000" opacity="1">7</text></g><g class="mark-rule role-axis-domain" pointer-events="none"><line transform="translate(0,0)" x2="400" y2="0" stroke="#888" stroke-width="1" opacity="1"/></g></g><path class="foreground" aria-hidden="true" d="" pointer-events="none" display="none"/></g></g><g class="mark-group role-axis" role="graphics-symbol" aria-roledescription="axis" aria-label="Y-axis for a discrete scale with 21 values: Margaret Kennedy, E. M. Delafield, Rebecca West, Hugh Walpole, Virginia Woolf, ending with Agatha Christie"><g transform="translate(0.5,0.5)"><path class="background" aria-hidden="true" d="M0,0h0v0h0Z" pointer-events="none"/><g><g class="mark-rule role-axis-tick" pointer-events="none"><line transform="translate(0,10)" x2="-5" y2="0" stroke="#888" stroke-width="1" opacity="1"/><line transform="translate(0,30)" x2="-5" y2="0" stroke="#888" stroke-width="1" opacity="1"/><line transform="translate(0,50)" x2="-5" y2="0" stroke="#888" stroke-width="1" opacity="1"/><line transform="translate(0,70)" x2="-5" y2="0" stroke="#888" stroke-width="1" opacity="1"/><line transform="translate(0,90)" x2="-5" y2="0" stroke="#888" stroke-width="1" opacity="1"/><line transform="translate(0,110)" x2="-5" y2="0" stroke="#888" stroke-width="1" opacity="1"/><line transform="translate(0,130)" x2="-5" y2="0" stroke="#888" stroke-width="1" opacity="1"/><line transform="translate(0,150)" x2="-5" y2="0" stroke="#888" stroke-width="1" opacity="1"/><line transform="translate(0,170)" x2="-5" y2="0" stroke="#888" stroke-width="1" opacity="1"/><line transform="translate(0,190)" x2="-5" y2="0" stroke="#888" stroke-width="1" opacity="1"/><line transform="translate(0,210)" x2="-5" y2="0" stroke="#888" stroke-width="1" opacity="1"/><line transform="translate(0,230)" x2="-5" y2="0" stroke="#888" stroke-width="1" opacity="1"/><line transform="translate(0,250)" x2="-5" y2="0" stroke="#888" stroke-width="1" opacity="1"/><line transform="translate(0,270)" x2="-5" y2="0" stroke="#888" stroke-width="1" opacity="1"/><line transform="translate(0,290)" x2="-5" y2="0" stroke="#888" stroke-width="1" opacity="1"/><line transform="translate(0,310)" x2="-5" y2="0" stroke="#888" stroke-width="1" opacity="1"/><line transform="translate(0,330)" x2="-5" y2="0" stroke="#888" stroke-width="1" opacity="1"/><line transform="translate(0,350)" x2="-5" y2="0" stroke="#888" stroke-width="1" opacity="1"/><line transform="translate(0,370)" x2="-5" y2="0" stroke="#888" stroke-width="1" opacity="1"/><line transform="translate(0,390)" x2="-5" y2="0" stroke="#888" stroke-width="1" opacity="1"/><line transform="translate(0,410)" x2="-5" y2="0" stroke="#888" stroke-width="1" opacity="1"/></g><g class="mark-text role-axis-label" pointer-events="none"><text text-anchor="end" transform="translate(-7,12.5)" font-family="sans-serif" font-size="10px" fill="#000" opacity="1">Margaret Kennedy</text><text text-anchor="end" transform="translate(-7,32.5)" font-family="sans-serif" font-size="10px" fill="#000" opacity="1">E. M. Delafield</text><text text-anchor="end" transform="translate(-7,52.5)" font-family="sans-serif" font-size="10px" fill="#000" opacity="1">Rebecca West</text><text text-anchor="end" transform="translate(-7,72.5)" font-family="sans-serif" font-size="10px" fill="#000" opacity="1">Hugh Walpole</text><text text-anchor="end" transform="translate(-7,92.5)" font-family="sans-serif" font-size="10px" fill="#000" opacity="1">Virginia Woolf</text><text text-anchor="end" transform="translate(-7,112.5)" font-family="sans-serif" font-size="10px" fill="#000" opacity="1">Elizabeth von Arnim</text><text text-anchor="end" transform="translate(-7,132.5)" font-family="sans-serif" font-size="10px" fill="#000" opacity="1">Kay Boyle</text><text text-anchor="end" transform="translate(-7,152.5)" font-family="sans-serif" font-size="10px" fill="#000" opacity="1">Fannie Hurst</text><text text-anchor="end" transform="translate(-7,172.5)" font-family="sans-serif" font-size="10px" fill="#000" opacity="1">Bridget Maclagan</text><text text-anchor="end" transform="translate(-7,192.5)" font-family="sans-serif" font-size="10px" fill="#000" opacity="1">Sylvia Thompson</text><text text-anchor="end" transform="translate(-7,212.5)" font-family="sans-serif" font-size="10px" fill="#000" opacity="1"/><text text-anchor="end" transform="translate(-7,232.5)" font-family="sans-serif" font-size="10px" fill="#000" opacity="1">Henry James</text><text text-anchor="end" transform="translate(-7,252.5)" font-family="sans-serif" font-size="10px" fill="#000" opacity="1">Christina Stead</text><text text-anchor="end" transform="translate(-7,272.5)" font-family="sans-serif" font-size="10px" fill="#000" opacity="1">Gertrude Stein</text><text text-anchor="end" transform="translate(-7,292.5)" font-family="sans-serif" font-size="10px" fill="#000" opacity="1">Mignon Good Eberhart</text><text text-anchor="end" transform="translate(-7,312.5)" font-family="sans-serif" font-size="10px" fill="#000" opacity="1">Mabel Dodge Luhan</text><text text-anchor="end" transform="translate(-7,332.5)" font-family="sans-serif" font-size="10px" fill="#000" opacity="1">Marianne Moore</text><text text-anchor="end" transform="translate(-7,352.5)" font-family="sans-serif" font-size="10px" fill="#000" opacity="1">Edith Sitwell</text><text text-anchor="end" transform="translate(-7,372.5)" font-family="sans-serif" font-size="10px" fill="#000" opacity="1">Emily Dickinson</text><text text-anchor="end" transform="translate(-7,392.5)" font-family="sans-serif" font-size="10px" fill="#000" opacity="1">George Eliot</text><text text-anchor="end" transform="translate(-7,412.5)" font-family="sans-serif" font-size="10px" fill="#000" opacity="1">Agatha Christie</text></g><g class="mark-rule role-axis-domain" pointer-events="none"><line transform="translate(0,0)" x2="0" y2="420" stroke="#888" stroke-width="1" opacity="1"/></g></g><path class="foreground" aria-hidden="true" d="" pointer-events="none" display="none"/></g></g><g class="mark-rect role-mark layer_0_marks" role="graphics-object" aria-roledescription="rect mark container"><path aria-label="type: Women; borrow_label: 2.32% (80 borrows); borrow_percent: 2.321532211; author: Margaret Kennedy" role="graphics-symbol" aria-roledescription="bar" d="M184.6153846153846,1h71.43176033846154v18h-71.43176033846154Z" fill="#58C2C8" opacity="1"/><path aria-label="type: Men; borrow_label: -0.74% (6 borrows); borrow_percent: −0.737100737; author: Margaret Kennedy" role="graphics-symbol" aria-roledescription="bar" d="M161.9353619384615,1h22.6800226769231v18h-22.6800226769231Z" fill="#FD9D21" opacity="1"/><path aria-label="type: Women; borrow_label: 2.23% (77 borrows); borrow_percent: 2.234474753; author: E. M. Delafield" role="graphics-symbol" aria-roledescription="bar" d="M184.6153846153846,21h68.75306932307694v18h-68.75306932307694Z" fill="#58C2C8" opacity="1"/><path aria-label="type: Men; borrow_label: -0.74% (6 borrows); borrow_percent: −0.737100737; author: E. M. Delafield" role="graphics-symbol" aria-roledescription="bar" d="M161.9353619384615,21h22.6800226769231v18h-22.6800226769231Z" fill="#FD9D21" opacity="1"/><path aria-label="type: Women; borrow_label: 1.04% (36 borrows); borrow_percent: 1.044689495; author: Rebecca West" role="graphics-symbol" aria-roledescription="bar" d="M184.6153846153846,41h32.14429215384615v18h-32.14429215384615Z" fill="#58C2C8" opacity="1"/><path aria-label="type: Men; borrow_label: -0.12% (1 borrows); borrow_percent: −0.122850123; author: Rebecca West" role="graphics-symbol" aria-roledescription="bar" d="M180.83538083076922,41h3.7800037846153884v18h-3.7800037846153884Z" fill="#FD9D21" opacity="1"/><path aria-label="type: Women; borrow_label: 1.30% (121 borrows); borrow_percent: 1.299119605; author: Hugh Walpole" role="graphics-symbol" aria-roledescription="bar" d="M184.6153846153846,61h39.97291092307691v18h-39.97291092307691Z" fill="#58C2C8" opacity="1"/><path aria-label="type: Men; borrow_label: -0.50% (26 borrows); borrow_percent: −0.49884881; author: Hugh Walpole" role="graphics-symbol" aria-roledescription="bar" d="M169.26619046153846,61h15.349194153846156v18h-15.349194153846156Z" fill="#FD9D21" opacity="1"/><path aria-label="type: Women; borrow_label: 6.07% (209 borrows); borrow_percent: 6.065002902; author: Virginia Woolf" role="graphics-symbol" aria-roledescription="bar" d="M184.6153846153846,81h186.61547390769235v18h-186.61547390769235Z" fill="#58C2C8" opacity="1"/><path aria-label="type: Men; borrow_label: -5.28% (43 borrows); borrow_percent: −5.282555283; author: Virginia Woolf" role="graphics-symbol" aria-roledescription="bar" d="M22.07522206153847,81h162.54016255384613v18h-162.54016255384613Z" fill="#FD9D21" opacity="1"/><path aria-label="type: Women; borrow_label: 0.90% (31 borrows); borrow_percent: 0.899593732; author: Elizabeth von Arnim" role="graphics-symbol" aria-roledescription="bar" d="M184.6153846153846,101h27.679807138461513v18h-27.679807138461513Z" fill="#58C2C8" opacity="1"/><path aria-label="type: Men; borrow_label: -0.12% (1 borrows); borrow_percent: −0.122850123; author: Elizabeth von Arnim" role="graphics-symbol" aria-roledescription="bar" d="M180.83538083076922,101h3.7800037846153884v18h-3.7800037846153884Z" fill="#FD9D21" opacity="1"/><path aria-label="type: Women; borrow_label: 2.12% (73 borrows); borrow_percent: 2.118398143; author: Kay Boyle" role="graphics-symbol" aria-roledescription="bar" d="M184.6153846153846,121h65.18148132307695v18h-65.18148132307695Z" fill="#58C2C8" opacity="1"/><path aria-label="type: Men; borrow_label: -1.35% (11 borrows); borrow_percent: −1.351351351; author: Kay Boyle" role="graphics-symbol" aria-roledescription="bar" d="M143.03534304615383,121h41.58004156923079v18h-41.58004156923079Z" fill="#FD9D21" opacity="1"/><path aria-label="type: Women; borrow_label: 1.13% (39 borrows); borrow_percent: 1.131746953; author: Fannie Hurst" role="graphics-symbol" aria-roledescription="bar" d="M184.6153846153846,141h34.82298316923078v18h-34.82298316923078Z" fill="#58C2C8" opacity="1"/><path aria-label="type: Men; borrow_label: -0.37% (3 borrows); borrow_percent: −0.368550369; author: Fannie Hurst" role="graphics-symbol" aria-roledescription="bar" d="M173.27537326153845,141h11.340011353846165v18h-11.340011353846165Z" fill="#FD9D21" opacity="1"/><path aria-label="type: Women; borrow_label: 1.25% (43 borrows); borrow_percent: 1.247823564; author: Bridget Maclagan" role="graphics-symbol" aria-roledescription="bar" d="M184.6153846153846,161h38.39457120000003v18h-38.39457120000003Z" fill="#58C2C8" opacity="1"/><path aria-label="type: Men; borrow_label: -0.49% (4 borrows); borrow_percent: −0.491400491; author: Bridget Maclagan" role="graphics-symbol" aria-roledescription="bar" d="M169.49536950769232,161h15.120015107692296v18h-15.120015107692296Z" fill="#FD9D21" opacity="1"/><path aria-label="type: Women; borrow_label: 1.89% (65 borrows); borrow_percent: 1.886244922; author: Sylvia Thompson" role="graphics-symbol" aria-roledescription="bar" d="M184.6153846153846,181h58.038305292307655v18h-58.038305292307655Z" fill="#58C2C8" opacity="1"/><path aria-label="type: Men; borrow_label: -1.23% (10 borrows); borrow_percent: −1.228501229; author: Sylvia Thompson" role="graphics-symbol" aria-roledescription="bar" d="M146.81534680000001,181h37.8000378153846v18h-37.8000378153846Z" fill="#FD9D21" opacity="1"/><path aria-label="type: ; borrow_label: ; borrow_percent: 0; author: " role="graphics-symbol" aria-roledescription="bar" d="M184.6153846153846,201h0v18h0Z" opacity="1"/><path aria-label="type: Women; borrow_label: 2.35% (81 borrows); borrow_percent: 2.350551364; author: Agatha Christie" role="graphics-symbol" aria-roledescription="bar" d="M184.6153846153846,401h72.32465735384616v18h-72.32465735384616Z" fill="#58C2C8" opacity="1"/><path aria-label="type: Men; borrow_label: -5.28% (43 borrows); borrow_percent: −5.282555283; author: Agatha Christie" role="graphics-symbol" aria-roledescription="bar" d="M22.07522206153847,401h162.54016255384613v18h-162.54016255384613Z" fill="#FD9D21" opacity="1"/><path aria-label="type: Women; borrow_label: 0.29% (10 borrows); borrow_percent: 0.290191526; author: George Eliot" role="graphics-symbol" aria-roledescription="bar" d="M184.6153846153846,381h8.92897003076925v18h-8.92897003076925Z" fill="#58C2C8" opacity="1"/><path aria-label="type: Men; borrow_label: -1.72% (14 borrows); borrow_percent: −1.71990172; author: George Eliot" role="graphics-symbol" aria-roledescription="bar" d="M131.6953316923077,381h52.92005292307692v18h-52.92005292307692Z" fill="#FD9D21" opacity="1"/><path aria-label="type: Women; borrow_label: 0.26% (9 borrows); borrow_percent: 0.261172374; author: Emily Dickinson" role="graphics-symbol" aria-roledescription="bar" d="M184.6153846153846,361h8.03607304615386v18h-8.03607304615386Z" fill="#58C2C8" opacity="1"/><path aria-label="type: Men; borrow_label: -1.60% (13 borrows); borrow_percent: −1.597051597; author: Emily Dickinson" role="graphics-symbol" aria-roledescription="bar" d="M135.47533547692308,361h49.140049138461535v18h-49.140049138461535Z" fill="#FD9D21" opacity="1"/><path aria-label="type: Women; borrow_label: 0.55% (19 borrows); borrow_percent: 0.5513639; author: Edith Sitwell" role="graphics-symbol" aria-roledescription="bar" d="M184.6153846153846,341h16.96504307692308v18h-16.96504307692308Z" fill="#58C2C8" opacity="1"/><path aria-label="type: Men; borrow_label: -1.84% (15 borrows); borrow_percent: −1.842751843; author: Edith Sitwell" role="graphics-symbol" aria-roledescription="bar" d="M127.91532790769229,341h56.700056707692326v18h-56.700056707692326Z" fill="#FD9D21" opacity="1"/><path aria-label="type: Women; borrow_label: 0.15% (5 borrows); borrow_percent: 0.145095763; author: Marianne Moore" role="graphics-symbol" aria-roledescription="bar" d="M184.6153846153846,321h4.464485015384611v18h-4.464485015384611Z" fill="#58C2C8" opacity="1"/><path aria-label="type: Men; borrow_label: -1.23% (10 borrows); borrow_percent: −1.228501229; author: Marianne Moore" role="graphics-symbol" aria-roledescription="bar" d="M146.81534680000001,321h37.8000378153846v18h-37.8000378153846Z" fill="#FD9D21" opacity="1"/><path aria-label="type: Women; borrow_label: 0.55% (19 borrows); borrow_percent: 0.5513639; author: Mabel Dodge Luhan" role="graphics-symbol" aria-roledescription="bar" d="M184.6153846153846,301h16.96504307692308v18h-16.96504307692308Z" fill="#58C2C8" opacity="1"/><path aria-label="type: Men; borrow_label: -1.35% (11 borrows); borrow_percent: −1.351351351; author: Mabel Dodge Luhan" role="graphics-symbol" aria-roledescription="bar" d="M143.03534304615383,301h41.58004156923079v18h-41.58004156923079Z" fill="#FD9D21" opacity="1"/><path aria-label="type: Women; borrow_label: 0.73% (25 borrows); borrow_percent: 0.725478816; author: Mignon Good Eberhart" role="graphics-symbol" aria-roledescription="bar" d="M184.6153846153846,281h22.32242510769231v18h-22.32242510769231Z" fill="#58C2C8" opacity="1"/><path aria-label="type: Men; borrow_label: -1.47% (12 borrows); borrow_percent: −1.474201474; author: Mignon Good Eberhart" role="graphics-symbol" aria-roledescription="bar" d="M139.25533926153847,281h45.36004535384615v18h-45.36004535384615Z" fill="#FD9D21" opacity="1"/><path aria-label="type: Women; borrow_label: 1.22% (42 borrows); borrow_percent: 1.218804411; author: Gertrude Stein" role="graphics-symbol" aria-roledescription="bar" d="M184.6153846153846,261h37.50167418461541v18h-37.50167418461541Z" fill="#58C2C8" opacity="1"/><path aria-label="type: Men; borrow_label: -1.97% (16 borrows); borrow_percent: −1.965601966; author: Gertrude Stein" role="graphics-symbol" aria-roledescription="bar" d="M124.13532412307693,261h60.480060492307686v18h-60.480060492307686Z" fill="#FD9D21" opacity="1"/><path aria-label="type: Women; borrow_label: 0.38% (13 borrows); borrow_percent: 0.377248984; author: Christina Stead" role="graphics-symbol" aria-roledescription="bar" d="M184.6153846153846,241h11.60766104615385v18h-11.60766104615385Z" fill="#58C2C8" opacity="1"/><path aria-label="type: Men; borrow_label: -1.11% (9 borrows); borrow_percent: −1.105651106; author: Christina Stead" role="graphics-symbol" aria-roledescription="bar" d="M150.5953505846154,241h34.02003403076921v18h-34.02003403076921Z" fill="#FD9D21" opacity="1"/><path aria-label="type: Women; borrow_label: 2.08% (194 borrows); borrow_percent: 2.082885978; author: Henry James" role="graphics-symbol" aria-roledescription="bar" d="M184.6153846153846,221h64.08879932307696v18h-64.08879932307696Z" fill="#58C2C8" opacity="1"/><path aria-label="type: Men; borrow_label: -2.80% (146 borrows); borrow_percent: −2.801227936; author: Henry James" role="graphics-symbol" aria-roledescription="bar" d="M98.42375581538462,221h86.19162879999999v18h-86.19162879999999Z" fill="#FD9D21" opacity="1"/></g><g class="mark-line role-mark layer_1_layer_0_marks" role="graphics-object" aria-roledescription="line mark container"><path aria-label="delta_label: 1.58; delta: 1.584431474; author: Margaret Kennedy" role="graphics-symbol" aria-roledescription="line mark" d="M233.367,10L233.367,10L230.688,30L230.688,30L212.98,50L212.98,50L209.239,70L209.239,70L208.691,90L208.691,90L208.515,110L208.515,110L208.217,130L208.217,130L208.098,150L208.098,150L207.89,170L207.89,170L204.854,190L204.854,190M162.513,230L162.513,230L162.203,250L162.203,250L161.637,270L161.637,270L161.578,290L161.578,290L160,310L160,310L151.28,330L151.28,330L144.88,350L144.88,350L143.511,370L143.511,370L140.624,390L140.624,390L94.4,410L94.4,410" stroke="gray" stroke-width="2"/></g><g class="mark-symbol role-mark layer_1_layer_1_marks" role="graphics-object" aria-roledescription="symbol mark container"><path aria-label="delta_shape: Delta; delta_label: 1.58; delta: 1.584431474; author: Margaret Kennedy" role="graphics-symbol" aria-roledescription="point" transform="translate(233.36712227692308,10)" d="M2.739,0A2.739,2.739,0,1,1,-2.739,0A2.739,2.739,0,1,1,2.739,0" fill="black" stroke-width="2" opacity="1"/><path aria-label="delta_shape: Delta; delta_label: 1.58; delta: 1.584431474; author: Margaret Kennedy" role="graphics-symbol" aria-roledescription="point" transform="translate(233.36712227692308,10)" d="M2.739,0A2.739,2.739,0,1,1,-2.739,0A2.739,2.739,0,1,1,2.739,0" fill="black" stroke-width="2" opacity="1"/><path aria-label="delta_shape: Delta; delta_label: 1.50; delta: 1.497374016; author: E. M. Delafield" role="graphics-symbol" aria-roledescription="point" transform="translate(230.68843126153848,30)" d="M2.739,0A2.739,2.739,0,1,1,-2.739,0A2.739,2.739,0,1,1,2.739,0" fill="black" stroke-width="2" opacity="1"/><path aria-label="delta_shape: Delta; delta_label: 1.50; delta: 1.497374016; author: E. M. Delafield" role="graphics-symbol" aria-roledescription="point" transform="translate(230.68843126153848,30)" d="M2.739,0A2.739,2.739,0,1,1,-2.739,0A2.739,2.739,0,1,1,2.739,0" fill="black" stroke-width="2" opacity="1"/><path aria-label="delta_shape: Delta; delta_label: 0.92; delta: 0.921839372; author: Rebecca West" role="graphics-symbol" aria-roledescription="point" transform="translate(212.9796729846154,50)" d="M2.739,0A2.739,2.739,0,1,1,-2.739,0A2.739,2.739,0,1,1,2.739,0" fill="black" stroke-width="2" opacity="1"/><path aria-label="delta_shape: Delta; delta_label: 0.92; delta: 0.921839372; author: Rebecca West" role="graphics-symbol" aria-roledescription="point" transform="translate(212.9796729846154,50)" d="M2.739,0A2.739,2.739,0,1,1,-2.739,0A2.739,2.739,0,1,1,2.739,0" fill="black" stroke-width="2" opacity="1"/><path aria-label="delta_shape: Delta; delta_label: 0.80; delta: 0.800270794; author: Hugh Walpole" role="graphics-symbol" aria-roledescription="point" transform="translate(209.23910135384617,70)" d="M2.739,0A2.739,2.739,0,1,1,-2.739,0A2.739,2.739,0,1,1,2.739,0" fill="black" stroke-width="2" opacity="1"/><path aria-label="delta_shape: Delta; delta_label: 0.80; delta: 0.800270794; author: Hugh Walpole" role="graphics-symbol" aria-roledescription="point" transform="translate(209.23910135384617,70)" d="M2.739,0A2.739,2.739,0,1,1,-2.739,0A2.739,2.739,0,1,1,2.739,0" fill="black" stroke-width="2" opacity="1"/><path aria-label="delta_shape: Delta; delta_label: 0.78; delta: 0.782447619; author: Virginia Woolf" role="graphics-symbol" aria-roledescription="point" transform="translate(208.69069596923077,90)" d="M2.739,0A2.739,2.739,0,1,1,-2.739,0A2.739,2.739,0,1,1,2.739,0" fill="black" stroke-width="2" opacity="1"/><path aria-label="delta_shape: Delta; delta_label: 0.78; delta: 0.782447619; author: Virginia Woolf" role="graphics-symbol" aria-roledescription="point" transform="translate(208.69069596923077,90)" d="M2.739,0A2.739,2.739,0,1,1,-2.739,0A2.739,2.739,0,1,1,2.739,0" fill="black" stroke-width="2" opacity="1"/><path aria-label="delta_shape: Delta; delta_label: 0.78; delta: 0.776743609; author: Elizabeth von Arnim" role="graphics-symbol" aria-roledescription="point" transform="translate(208.51518796923077,110)" d="M2.739,0A2.739,2.739,0,1,1,-2.739,0A2.739,2.739,0,1,1,2.739,0" fill="black" stroke-width="2" opacity="1"/><path aria-label="delta_shape: Delta; delta_label: 0.78; delta: 0.776743609; author: Elizabeth von Arnim" role="graphics-symbol" aria-roledescription="point" transform="translate(208.51518796923077,110)" d="M2.739,0A2.739,2.739,0,1,1,-2.739,0A2.739,2.739,0,1,1,2.739,0" fill="black" stroke-width="2" opacity="1"/><path aria-label="delta_shape: Delta; delta_label: 0.77; delta: 0.767046791; author: Kay Boyle" role="graphics-symbol" aria-roledescription="point" transform="translate(208.21682433846155,130)" d="M2.739,0A2.739,2.739,0,1,1,-2.739,0A2.739,2.739,0,1,1,2.739,0" fill="black" stroke-width="2" opacity="1"/><path aria-label="delta_shape: Delta; delta_label: 0.77; delta: 0.767046791; author: Kay Boyle" role="graphics-symbol" aria-roledescription="point" transform="translate(208.21682433846155,130)" d="M2.739,0A2.739,2.739,0,1,1,-2.739,0A2.739,2.739,0,1,1,2.739,0" fill="black" stroke-width="2" opacity="1"/><path aria-label="delta_shape: Delta; delta_label: 0.76; delta: 0.763196584; author: Fannie Hurst" role="graphics-symbol" aria-roledescription="point" transform="translate(208.09835643076923,150)" d="M2.739,0A2.739,2.739,0,1,1,-2.739,0A2.739,2.739,0,1,1,2.739,0" fill="black" stroke-width="2" opacity="1"/><path aria-label="delta_shape: Delta; delta_label: 0.76; delta: 0.763196584; author: Fannie Hurst" role="graphics-symbol" aria-roledescription="point" transform="translate(208.09835643076923,150)" d="M2.739,0A2.739,2.739,0,1,1,-2.739,0A2.739,2.739,0,1,1,2.739,0" fill="black" stroke-width="2" opacity="1"/><path aria-label="delta_shape: Delta; delta_label: 0.76; delta: 0.756423072; author: Bridget Maclagan" role="graphics-symbol" aria-roledescription="point" transform="translate(207.8899406769231,170)" d="M2.739,0A2.739,2.739,0,1,1,-2.739,0A2.739,2.739,0,1,1,2.739,0" fill="black" stroke-width="2" opacity="1"/><path aria-label="delta_shape: Delta; delta_label: 0.76; delta: 0.756423072; author: Bridget Maclagan" role="graphics-symbol" aria-roledescription="point" transform="translate(207.8899406769231,170)" d="M2.739,0A2.739,2.739,0,1,1,-2.739,0A2.739,2.739,0,1,1,2.739,0" fill="black" stroke-width="2" opacity="1"/><path aria-label="delta_shape: Delta; delta_label: 0.66; delta: 0.657743693; author: Sylvia Thompson" role="graphics-symbol" aria-roledescription="point" transform="translate(204.8536520923077,190)" d="M2.739,0A2.739,2.739,0,1,1,-2.739,0A2.739,2.739,0,1,1,2.739,0" fill="black" stroke-width="2" opacity="1"/><path aria-label="delta_shape: Delta; delta_label: 0.66; delta: 0.657743693; author: Sylvia Thompson" role="graphics-symbol" aria-roledescription="point" transform="translate(204.8536520923077,190)" d="M2.739,0A2.739,2.739,0,1,1,-2.739,0A2.739,2.739,0,1,1,2.739,0" fill="black" stroke-width="2" opacity="1"/><path aria-label="delta_shape: Delta; delta_label: -2.93; delta: −2.932003919; author: Agatha Christie" role="graphics-symbol" aria-roledescription="point" transform="translate(94.39987941538462,410)" d="M2.739,0A2.739,2.739,0,1,1,-2.739,0A2.739,2.739,0,1,1,2.739,0" fill="black" stroke-width="2" opacity="1"/><path aria-label="delta_shape: Delta; delta_label: -2.93; delta: −2.932003919; author: Agatha Christie" role="graphics-symbol" aria-roledescription="point" transform="translate(94.39987941538462,410)" d="M2.739,0A2.739,2.739,0,1,1,-2.739,0A2.739,2.739,0,1,1,2.739,0" fill="black" stroke-width="2" opacity="1"/><path aria-label="delta_shape: Delta; delta_label: -1.43; delta: −1.429710193; author: George Eliot" role="graphics-symbol" aria-roledescription="point" transform="translate(140.62430175384614,390)" d="M2.739,0A2.739,2.739,0,1,1,-2.739,0A2.739,2.739,0,1,1,2.739,0" fill="black" stroke-width="2" opacity="1"/><path aria-label="delta_shape: Delta; delta_label: -1.43; delta: −1.429710193; author: George Eliot" role="graphics-symbol" aria-roledescription="point" transform="translate(140.62430175384614,390)" d="M2.739,0A2.739,2.739,0,1,1,-2.739,0A2.739,2.739,0,1,1,2.739,0" fill="black" stroke-width="2" opacity="1"/><path aria-label="delta_shape: Delta; delta_label: -1.34; delta: −1.335879223; author: Emily Dickinson" role="graphics-symbol" aria-roledescription="point" transform="translate(143.5114085230769,370)" d="M2.739,0A2.739,2.739,0,1,1,-2.739,0A2.739,2.739,0,1,1,2.739,0" fill="black" stroke-width="2" opacity="1"/><path aria-label="delta_shape: Delta; delta_label: -1.34; delta: −1.335879223; author: Emily Dickinson" role="graphics-symbol" aria-roledescription="point" transform="translate(143.5114085230769,370)" d="M2.739,0A2.739,2.739,0,1,1,-2.739,0A2.739,2.739,0,1,1,2.739,0" fill="black" stroke-width="2" opacity="1"/><path aria-label="delta_shape: Delta; delta_label: -1.29; delta: −1.291387943; author: Edith Sitwell" role="graphics-symbol" aria-roledescription="point" transform="translate(144.88037098461538,350)" d="M2.739,0A2.739,2.739,0,1,1,-2.739,0A2.739,2.739,0,1,1,2.739,0" fill="black" stroke-width="2" opacity="1"/><path aria-label="delta_shape: Delta; delta_label: -1.29; delta: −1.291387943; author: Edith Sitwell" role="graphics-symbol" aria-roledescription="point" transform="translate(144.88037098461538,350)" d="M2.739,0A2.739,2.739,0,1,1,-2.739,0A2.739,2.739,0,1,1,2.739,0" fill="black" stroke-width="2" opacity="1"/><path aria-label="delta_shape: Delta; delta_label: -1.08; delta: −1.083405465; author: Marianne Moore" role="graphics-symbol" aria-roledescription="point" transform="translate(151.27983184615383,330)" d="M2.739,0A2.739,2.739,0,1,1,-2.739,0A2.739,2.739,0,1,1,2.739,0" fill="black" stroke-width="2" opacity="1"/><path aria-label="delta_shape: Delta; delta_label: -1.08; delta: −1.083405465; author: Marianne Moore" role="graphics-symbol" aria-roledescription="point" transform="translate(151.27983184615383,330)" d="M2.739,0A2.739,2.739,0,1,1,-2.739,0A2.739,2.739,0,1,1,2.739,0" fill="black" stroke-width="2" opacity="1"/><path aria-label="delta_shape: Delta; delta_label: -0.80; delta: −0.799987451; author: Mabel Dodge Luhan" role="graphics-symbol" aria-roledescription="point" transform="translate(160.0003861230769,310)" d="M2.739,0A2.739,2.739,0,1,1,-2.739,0A2.739,2.739,0,1,1,2.739,0" fill="black" stroke-width="2" opacity="1"/><path aria-label="delta_shape: Delta; delta_label: -0.80; delta: −0.799987451; author: Mabel Dodge Luhan" role="graphics-symbol" aria-roledescription="point" transform="translate(160.0003861230769,310)" d="M2.739,0A2.739,2.739,0,1,1,-2.739,0A2.739,2.739,0,1,1,2.739,0" fill="black" stroke-width="2" opacity="1"/><path aria-label="delta_shape: Delta; delta_label: -0.75; delta: −0.748722658; author: Mignon Good Eberhart" role="graphics-symbol" aria-roledescription="point" transform="translate(161.57776436923078,290)" d="M2.739,0A2.739,2.739,0,1,1,-2.739,0A2.739,2.739,0,1,1,2.739,0" fill="black" stroke-width="2" opacity="1"/><path aria-label="delta_shape: Delta; delta_label: -0.75; delta: −0.748722658; author: Mignon Good Eberhart" role="graphics-symbol" aria-roledescription="point" transform="translate(161.57776436923078,290)" d="M2.739,0A2.739,2.739,0,1,1,-2.739,0A2.739,2.739,0,1,1,2.739,0" fill="black" stroke-width="2" opacity="1"/><path aria-label="delta_shape: Delta; delta_label: -0.75; delta: −0.746797555; author: Gertrude Stein" role="graphics-symbol" aria-roledescription="point" transform="translate(161.63699830769232,270)" d="M2.739,0A2.739,2.739,0,1,1,-2.739,0A2.739,2.739,0,1,1,2.739,0" fill="black" stroke-width="2" opacity="1"/><path aria-label="delta_shape: Delta; delta_label: -0.75; delta: −0.746797555; author: Gertrude Stein" role="graphics-symbol" aria-roledescription="point" transform="translate(161.63699830769232,270)" d="M2.739,0A2.739,2.739,0,1,1,-2.739,0A2.739,2.739,0,1,1,2.739,0" fill="black" stroke-width="2" opacity="1"/><path aria-label="delta_shape: Delta; delta_label: -0.73; delta: −0.728402121; author: Christina Stead" role="graphics-symbol" aria-roledescription="point" transform="translate(162.20301166153845,250)" d="M2.739,0A2.739,2.739,0,1,1,-2.739,0A2.739,2.739,0,1,1,2.739,0" fill="black" stroke-width="2" opacity="1"/><path aria-label="delta_shape: Delta; delta_label: -0.73; delta: −0.728402121; author: Christina Stead" role="graphics-symbol" aria-roledescription="point" transform="translate(162.20301166153845,250)" d="M2.739,0A2.739,2.739,0,1,1,-2.739,0A2.739,2.739,0,1,1,2.739,0" fill="black" stroke-width="2" opacity="1"/><path aria-label="delta_shape: Delta; delta_label: -0.72; delta: −0.718341957; author: Henry James" role="graphics-symbol" aria-roledescription="point" transform="translate(162.51255516923078,230)" d="M2.739,0A2.739,2.739,0,1,1,-2.739,0A2.739,2.739,0,1,1,2.739,0" fill="black" stroke-width="2" opacity="1"/><path aria-label="delta_shape: Delta; delta_label: -0.72; delta: −0.718341957; author: Henry James" role="graphics-symbol" aria-roledescription="point" transform="translate(162.51255516923078,230)" d="M2.739,0A2.739,2.739,0,1,1,-2.739,0A2.739,2.739,0,1,1,2.739,0" fill="black" stroke-width="2" opacity="1"/></g><g class="mark-group role-legend" role="graphics-symbol" aria-roledescription="legend" aria-label="Symbol legend titled 'Percentage of total borrows by gender' for fill color with 2 values: Men, Women"><g transform="translate(418,0)"><path class="background" aria-hidden="true" d="M0,0h100v53h-100Z" pointer-events="none"/><g><g class="mark-group role-legend-entry"><g transform="translate(0,29)"><path class="background" aria-hidden="true" d="M0,0h0v0h0Z" pointer-events="none"/><g><g class="mark-group role-scope" role="graphics-object" aria-roledescription="group mark container"><g transform="translate(0,0)"><path class="background" aria-hidden="true" d="M0,0h50.14545440673828v11h-50.14545440673828Z" pointer-events="none" opacity="1"/><g><g class="mark-symbol role-legend-symbol" pointer-events="none"><path transform="translate(6,6)" d="M-5,-5h10v10h-10Z" fill="#FD9D21" stroke-width="1.5" opacity="1"/></g><g class="mark-text role-legend-label" pointer-events="none"><text text-anchor="start" transform="translate(16,9)" font-family="sans-serif" font-size="10px" fill="#000" opacity="1">Men</text></g></g><path class="foreground" aria-hidden="true" d="" pointer-events="none" display="none"/></g><g transform="translate(0,13)"><path class="background" aria-hidden="true" d="M0,0h50.14545440673828v11h-50.14545440673828Z" pointer-events="none" opacity="1"/><g><g class="mark-symbol role-legend-symbol" pointer-events="none"><path transform="translate(6,6)" d="M-5,-5h10v10h-10Z" fill="#58C2C8" stroke-width="1.5" opacity="1"/></g><g class="mark-text role-legend-label" pointer-events="none"><text text-anchor="start" transform="translate(16,9)" font-family="sans-serif" font-size="10px" fill="#000" opacity="1">Women</text></g></g><path class="foreground" aria-hidden="true" d="" pointer-events="none" display="none"/></g></g></g><path class="foreground" aria-hidden="true" d="" pointer-events="none" display="none"/></g></g><g class="mark-text role-legend-title" pointer-events="none"><text text-anchor="start" transform="translate(0,9)" font-family="sans-serif" font-size="11px" font-weight="bold" fill="#000" opacity="1"><tspan>Percentage of total</tspan><tspan x="0" dy="13">borrows by gender</tspan></text></g></g><path class="foreground" aria-hidden="true" d="" pointer-events="none" display="none"/></g></g><g class="mark-group role-legend" role="graphics-symbol" aria-roledescription="legend" aria-label="Symbol legend for shape with 1 value: Delta"><g transform="translate(418,61)"><path class="background" aria-hidden="true" d="M0,0h40v13h-40Z" pointer-events="none"/><g><g class="mark-group role-legend-entry"><g transform="translate(0,0)"><path class="background" aria-hidden="true" d="M0,0h0v0h0Z" pointer-events="none"/><g><g class="mark-group role-scope" role="graphics-object" aria-roledescription="group mark container"><g transform="translate(0,0)"><path class="background" aria-hidden="true" d="M0,0h39.272727966308594v12.5h-39.272727966308594Z" pointer-events="none" opacity="1"/><g><g class="mark-symbol role-legend-symbol" pointer-events="none"><path transform="translate(6,6)" d="M5,0A5,5,0,1,1,-5,0A5,5,0,1,1,5,0" fill="black" stroke-width="1.5" opacity="1"/></g><g class="mark-text role-legend-label" pointer-events="none"><text text-anchor="start" transform="translate(16,9)" font-family="sans-serif" font-size="10px" fill="#000" opacity="1">Delta</text></g></g><path class="foreground" aria-hidden="true" d="" pointer-events="none" display="none"/></g></g></g><path class="foreground" aria-hidden="true" d="" pointer-events="none" display="none"/></g></g></g><path class="foreground" aria-hidden="true" d="" pointer-events="none" display="none"/></g></g></g><path class="foreground" aria-hidden="true" d="" display="none"/></g></g></g></svg>